<?xml version="1.0" encoding="utf-8"?>
<!-- Generator: Adobe Illustrator 16.0.0, SVG Export Plug-In . SVG Version: 6.00 Build 0)  -->
<!DOCTYPE svg PUBLIC "-//W3C//DTD SVG 1.1//EN" "http://www.w3.org/Graphics/SVG/1.1/DTD/svg11.dtd">
<svg version="1.1" id="Layer_1" xmlns="http://www.w3.org/2000/svg" xmlns:xlink="http://www.w3.org/1999/xlink" x="0px" y="0px"
	 width="232px" height="232px" viewBox="0 0 232 232" enable-background="new 0 0 232 232" xml:space="preserve">
<path d="M74.917,88.5v54.999c0,0.699,0.198,1.347,0.573,1.872c0.542,0.759,1.387,1.193,2.317,1.193c0.001,0,0,0,0.001,0
	c0.669,0,1.329-0.23,1.909-0.666l33.199-24.899v22.5c0,0.693,0.195,1.337,0.564,1.858c0.531,0.753,1.398,1.202,2.319,1.202
	c0.678,0,1.346-0.236,1.931-0.686l34.322-26.34V150h5V82h-5v30.463l-34.321-26.339c-0.586-0.448-1.253-0.686-1.932-0.686
	c-1.645,0-2.884,1.315-2.884,3.06v22.501l-33.2-24.9c-0.579-0.435-1.239-0.665-1.909-0.665C76.16,85.434,74.917,86.752,74.917,88.5z
	 M117.917,92.568l30.53,23.431l-30.53,23.431V92.568z M79.917,92.499l31.333,23.5l-31.333,23.5V92.499z"/>
</svg>
