<?xml version="1.0" standalone="no"?>
<!DOCTYPE svg PUBLIC "-//W3C//DTD SVG 1.1//EN" "http://www.w3.org/Graphics/SVG/1.1/DTD/svg11.dtd" >
<svg xmlns="http://www.w3.org/2000/svg">
<metadata>
<json>
<![CDATA[
{
	"fontFamily": "icomoon",
	"description": "Font generated by IcoMoon.",
	"majorVersion": 1,
	"minorVersion": 0,
	"version": "Version 1.0",
	"fontId": "icomoon",
	"psName": "icomoon",
	"subFamily": "Regular",
	"fullName": "icomoon"
}
]]>
</json>
</metadata>
<defs>
<font id="icomoon" horiz-adv-x="1024">
<font-face units-per-em="1024" ascent="960" descent="-64" />
<missing-glyph horiz-adv-x="1024" />
<glyph unicode="&#x20;" horiz-adv-x="512" d="" />
<glyph unicode="&#xe000;" glyph-name="uniF2E0" data-tags="uniF2E0" d="M362 704l86-96h298c22.667 0 42.667-8.667 60-26s26-37.333 26-60v-372c0-22.667-8.667-42.667-26-60s-37.333-26-60-26h-660c-22.667 0-42.667 8.667-60 26s-26 37.333-26 60v468c0 22.667 8.667 42.667 26 60s37.333 26 60 26z" />
<glyph unicode="&#xe001;" glyph-name="uniF4F5" data-tags="uniF4F5" d="M100.2 703.6c-33.333 0-44.958-3.365-70.291-22.032-24-20-29.909-47.902-29.909-74.568v-448c0-38.074 8.478-50.541 25.049-68.204 15.694-16.729 38.951-28.050 62.951-27.796h620.8c32 0 62.667 7.333 92 22 28 13.333 48.667 32 62 56l126 268c6.667 13.333 10 26 10 38-2.667 14.667-8 26-16 34s-20 15.333-36 22c-12 5.333-28 8-48 8h-66c0 28-8.501 58.204-32.501 75.537-25.333 18.667-29.099 20.463-61.099 20.463h-290.6l-87.8 96.6zM312 447h600.8l2-2c0-1.333 0.667-2.667 2-4l-4-8v-2l-128-266c-5.333-9.333-16-18-32-26-17.333-8-32-12-44-12h-586.8c-6.667 0-10.667 0.667-12 2h-2v2c0 1.333 0.667 4.667 2 10l128 268c5.333 9.333 16 18 32 26s30 12 42 12z" />
<glyph unicode="&#xe003;" glyph-name="uniE003" data-tags="uniE003" d="M730 186l218-192-428 32q63 39 114.5 81.5t89.5 78.5h6zM972 70l-52 352q30 48 53.5 91t38.5 81zM746 198q40 43 81 95.5t77 106.5l58-394zM492 10l356-28-500-34q37 12 73 27t71 35zM74 262l240 52-108-356zM346 332l270 252 94-370zM636 620l74 240 266-218zM830 954l-124-68-98 70zM10 392l46-120-54-96zM132 306q-22 1-39 6.5t-29 17.5q-13 13-20.5 32.5t-7.5 43.5q1 34 14 75.5t37 85 58 88 75 85.5q43 43 90 77.5t92 58 86.5 36 75.5 12.5q22 0 40-7t30-19q26-26 28-70.5t-18.5-98.5-62-114-101.5-119q-33-33-65.5-61.5t-64.5-52.5q-24-15-46.5-28t-43.5-24q-33-13-64.5-20t-63.5-4zM462 16q-6-3-13-7t-13-7q-43-19-88-33.5t-92-22.5q-6-1-13-1.5t-15-2.5l-8-2 110 366 148-282q-4-3-7.5-4.5t-8.5-3.5zM762 250q-7-9-13.5-16.5t-14.5-15.5l-90 358q26-16 57.5-35.5l63-39t60.5-36.5 49-29l18-12q-7-13-16-25.5t-18-26.5q-9-12-16.5-22.5t-15.5-21.5q-4-4-7.5-8.5t-6.5-9.5q-4-4-7.5-8.5t-6.5-9.5q-4-4-7.5-8.5t-8.5-9.5q-1-3-5.5-7.5l-4.5-4.5q-1-3-2.5-4.5l-3.5-3.5zM1016 824q4-15 5.5-31.5t0.5-34.5v-24q-3-21-7.5-43.5t-10.5-46.5l-268 220zM908 440l-28 18q-19 12-48 29t-60.5 36.5-64 39.5-59.5 37l348 22q-9-33-27.5-72.5t-36.5-71.5q-6-10-11.5-19t-10.5-15v-1.5t-2-2.5zM490 28l-148 288 370-120q-57-55-110-95.5t-110-72.5h-2zM2 136l46 88-16-206q-15 22-22.5 52t-7.5 66zM68 238q10-22 26-59.5t32.5-77 31-75.5 22.5-56l10-24h-18q-42 0-71.5 12.5t-52.5 41.5zM1012 838l-280 40 134 76q46-9 79-28.5t51-51.5q4-9 8.5-17t7.5-19z" />
<glyph unicode="&#xe004;" glyph-name="uniE004" data-tags="uniE004" d="M436 444q0-96-3-175t-51-127q-27-27-68-42.5t-94-15.5q-85 0-136.5 37.5t-81.5 96.5q28 18 58 36l60 36q13-34 51-62t85-4q30 15 33 56.5t3 91.5v428.5t2 1.5h142v-358zM800 530q41-18 82.5-37.5t74-48 51-70.5 14.5-104q-3-45-22-79.5t-50.5-58-74.5-35.5-93-13q-99 0-163 40t-103 108q27 19 57 35.5t59 34.5q24-36 64-64t100-24q36 3 66 31t6 75q-10 21-35 34t-51 24q-40 18-81.5 37t-74.5 47-51.5 69.5-14.5 104.5q3 43 20.5 73t43.5 51q25 22 60 36t82 14q82 3 132-29t82-85q-27-21-55.5-38.5t-58.5-35.5q-9 30-49 51t-79 3q-16-7-28.5-29t-3.5-51q9-24 37-39.5t57-26.5z" />
<glyph unicode="&#xe005;" glyph-name="uniE005" data-tags="uniE005" d="M388 544q-7 15-9.5 32t3.5 34q4 18 15 32t23 26q34 34 73.5 61.5t72.5 62.5q18 19 32 41.5t20 48.5q3 19 2 38.5t-6 39.5q18-21 24-47.5t2-52.5q-6-28-21-53.5t-33-48.5q-15-18-32.5-33.5t-35.5-30.5q-21-16-40.5-36t-33.5-44q-10-18-12.5-40.5t4.5-43.5q13-37 37-67t41-63q-18 15-35.5 31t-32.5 33q-18 18-32.5 37.5t-25.5 42.5zM514 582q4 28 22.5 52t41.5 42q36 27 77 44.5t85 29.5q-34-21-68-43t-64-49q-10-10-19.5-22t-14.5-26q-3-10-2-21.5t6-22.5q7-18 19-33.5t23-32.5q7-13 8.5-30t-4.5-32q-10-22-28-39t-38-29q-3-1-5-3.5t-5-2.5q13 12 22 28t8 36q0 13-6.5 25t-15.5 21q-18 22-31.5 50t-10.5 58zM786 394q-9 1-18-1.5t-18-4.5q7 9 18.5 12.5t23.5 5.5q19 3 39-2.5t35-19.5q12-10 18.5-26.5t3.5-33.5q-3-19-14-34.5t-26-27.5q-27-21-58-34.5t-64-21.5q1 1 3.5 2.5t4.5 3.5q25 13 48.5 30t41.5 38q10 13 17.5 30.5t4.5 35.5q-4 19-21.5 32.5t-38.5 15.5zM246 322q-7 3-13.5 5.5t-12.5 8.5q-3 1-3 5t3 7q6 6 13 9.5t15 8.5q34 13 71 22t75 8q-21-6-43-12.5t-43-15.5q-4-3-9.5-5.5t-8.5-8.5q-1-3 2-5.5t6-4.5q12-4 26-6l28-4q48-3 95.5-2t94.5 4q48 3 94.5 9.5t93.5 14.5q-10-6-20.5-11t-19.5-11q-4-3-10-4.5t-12-3.5q-57-12-115-17t-117-5q-22-1-44.5-0.5t-45.5 2.5q-25 1-49.5 3.5t-50.5 8.5zM650 254q9-7 19-13.5t21-12.5q-39-10-79-17.5t-81-10.5q-39-3-77.5-2.5t-76.5 6.5q-15 3-30.5 6.5t-29.5 11.5q-6 3-11 7.5t-7 10.5q-1 6 2 10.5t8 7.5q4 3 18 10t26 12q-4-4-8-9t-4-11q-1-4 2-6.5t6-5.5q6-3 12-4.5t14-1.5q36-4 72-5.5t72 1.5q33 1 66 5.5t66 10.5zM376 168l-7-7t-1-9q4-7 12-8.5t16-3.5q31-4 63-6.5t65 0.5q22 1 46 5t48 9q13-9 27-15.5t29-12.5q-22-10-46-16.5t-48-11.5q-39-7-80-7.5t-82 5.5q-16 3-34.5 8t-33.5 14q-6 3-12 7.5t-8 10.5q-3 6-1 11.5t7 8.5q9 7 19 11t21 7zM716 8q-75-15-152.5-19t-155.5-3q-58 3-115.5 8t-116.5 16q-10 3-20 5.5t-18 10.5q-6 6-3.5 12.5t7.5 11.5q12 10 26.5 17t29.5 13q18 6 35 10t37 4q6 0 13-0.5t15-3.5q-22-1-43-7t-41-15l-8-6t-6-8q0-6 4.5-8.5t9.5-5.5q27-9 55-14t57-8q42-3 84.5-4t85-0.5 85 2.5 85.5 6q31 3 62.5 8t63.5 14q10 3 20 7t16 13q4 6 2.5 11.5t-4.5 10.5q6-4 12.5-9t5.5-13q-3-9-10.5-14t-15.5-10q-24-12-49.5-19t-52.5-13zM818-6q19 7 38 15t34 23q-3-16-14.5-27t-25.5-19q-27-13-56.5-20.5t-59.5-13.5q-61-9-124-12t-128-2q-42 1-85 4t-87 12q-9 3-19 5.5t-19 8.5q37-7 75-9.5t77-4.5q63-1 126 0.5t126 9.5q36 6 71.5 12.5t70.5 17.5z" />
<glyph unicode="&#xe006;" glyph-name="uniE006" data-tags="uniE006" d="M802 512q6-6 7.5-16.5t-1.5-25.5q-3-16-9-27t-15-19q-9-6-22-9t-30-3h-36l22 112h40q16 0 27-3t17-9zM300 524q16 0 27-3t17-9 7.5-16.5-1.5-25.5q-3-16-9-27t-15-19q-9-6-22-9t-30-3h-36l22 112h40zM1024 448q0-55-40.5-104t-110-85.5-162.5-57.5-199-21-199 21-162 57.5-109 85-40 104.5q0 55 40 104t109 85.5 162 57.5 199 21 199-21 162.5-57.5 110-85 40.5-104.5zM398 430q4 7 7 16t5 20q4 24 1 42t-15 32q-12 13-30 19.5t-44 6.5h-114l-52-268h60l14 72h50q16 0 29.5 1.5t24.5 4.5q10 3 20.5 9t19.5 15q7 6 12.5 13.5t11.5 16.5zM604 370l24 124q3 19 1 33t-13 23q-9 9-25.5 12.5t-40.5 3.5h-52l14 72h-58l-54-268h60l28 154h48q10 0 17.5-2.5t10.5-5.5q4-3 4.5-10t-0.5-18l-24-118h60zM854 540q-12 13-30 19.5t-44 6.5h-114l-52-268h60l14 72h50q16 0 29.5 1.5t24.5 4.5q10 3 20.5 9t19.5 15q7 6 13 13.5t11 16.5q4 7 7 16t5 20q4 24 1 42t-15 32z" />
<glyph unicode="&#xe007;" glyph-name="uniE007" data-tags="uniE007" d="M390 466q-63 0-107.5-45t-44.5-107v-110h-84q-54 0-85 34t-45 88q-18 73-17.5 126t17.5 122q15 61 57 92.5t95 31.5h336v32h-244v92q0 52 22 82.5t100 45.5q25 4 54.5 6t61.5 2q31 1 63.5-1t64.5-7q49-9 84.5-43.5t35.5-84.5v-232q0-51-35-87.5t-85-36.5h-244zM374 792q19 0 32.5 13t13.5 33q0 19-13 32.5t-33 13.5q-19 0-32.5-13t-13.5-33q0-19 13-32.5t33-13.5zM998 574q19-73 19-131t-19-115q-18-57-43-90.5t-79-33.5h-364v-32h242v-92q0-52-37.5-81t-82.5-43q-70-21-128.5-19.5t-115.5 19.5q-48 13-85 43.5t-37 80.5v232q0 49 35.5 86.5t86.5 37.5h244q60 0 106 45.5t46 108.5v108h90q54 0 82-35t40-89zM648 110q-18 0-32-13t-14-33q0-19 14-32.5t32-13.5q19 0 32.5 13t13.5 33q0 19-13 32.5t-33 13.5z" />
<glyph unicode="&#xe008;" glyph-name="uniE008" data-tags="uniE008" d="M966 664v-432q0-21-11-39t-29-29l-374-216q-9-6-19-8t-21-2q-10 0-20.5 2t-19.5 8l-124 74q-15 7-12 10.5t8 5.5q19 6 27.5 10t28.5 16q3 1 5.5 0.5t4.5-2.5l96-56q3-1 6-1t6 1l374 216q3 1 4.5 4t1.5 6v432q0 3-1.5 5.5t-4.5 4.5l-374 216q-3 1-6 1t-6-1l-374-216q-3-1-4.5-4t-1.5-6v-432q0-3 1.5-5.5t4.5-4.5l102-60q42-21 66-3.5t24 41.5v428q0 4 3.5 7t8.5 3h46q4 0 8-2.5t4-7.5v-428q0-55-29-85.5t-83-30.5q-16 0-33 3t-53 21l-98 56q-18 10-29 28.5t-11 39.5v432q0 21 11 39t29 29l374 216q18 10 40 10t40-10l374-216q18-10 29-28.5t11-39.5zM642 274q67 0 97.5 15.5t30.5 50.5q0 21-23 36t-127 26q-87 7-136.5 33t-49.5 95q0 64 50 100t142 36q100 0 152-35.5t58-110.5q0-3-0.5-5.5t-3.5-4.5q-1-1-3-2.5t-5-1.5h-54q-4 0-8 2.5t-4 7.5q-10 43-38.5 59.5t-93.5 16.5q-73 0-91.5-20t-18.5-38q0-24 23.5-34t122.5-24q97-12 143.5-37.5t46.5-94.5-54.5-106.5-155.5-37.5q-138 0-181 51t-43 105q0 4 4 8t10 4h54q4 0 7-3.5t5-8.5q6-40 33-61t111-21z" />
<glyph unicode="&#xe009;" glyph-name="uniE009" data-tags="uniE009" d="M286 750q-16 13-17.5 28t11.5 30q4 7 16 10.5t54 9.5q18 3 39-4t21-16q0-6-8-7.5t-32 1.5q-19 1-33.5 1t-22.5-5q-13-7-13.5-13.5t9.5-18.5q13-12 53-8.5t69 20.5q12 7 28.5 16.5t27.5 15.5q12 7 30 14t32 12q87 21 163.5 0t76.5-66q0-28-36-46t-92-18q-33 1-50.5 5.5t-29.5 16.5q-12 10-11.5 16.5t15.5 15.5q12 7 16.5 7t15.5-11q21-19 69.5-13t48.5 27q0 15-17.5 22.5t-52.5 7.5q-37 0-71-9.5t-93-38.5q-69-33-126-34t-90 32zM70 692q-25 21-19.5 40.5t43.5 39.5q22 12 26.5 11t-4.5-15q-7-12-7-17t11-17q16-22 73.5-40.5t144.5-29.5q25-4 85.5-6t125-2 119 1.5 68.5 4.5q7 1 21.5 3.5t28.5 4.5q39 4 90.5 18.5t69.5 25.5q19 12 25.5 24.5t2.5 27.5q-3 9-1 9t17-9q34-19 30.5-45t-42.5-47q-33-16-76-28t-96.5-20-116.5-12.5-137-5.5q-118 0-178 4.5t-138 19.5q-64 13-104.5 27.5t-61.5 32.5zM1000 628q10 7 16.5 9.5t5.5-1.5q0-3-4-19.5t-10-36.5q-4-19-12-48t-16-50q-22-61-44.5-100t-87.5-128q-12-16-24.5-39.5t-17.5-40.5q-18-66-81-95t-189-29q-58 0-84.5 3t-59.5 15q-39 12-72.5 33t-33.5 35q-1 16-25.5 62.5t-60.5 97.5q-22 30-42 62t-28 46q-6 13-11.5 23.5t-8.5 10.5q-4 0-18-28t-16-46q-3-19 4-51t18-49q21-31 58-56.5t64-25.5q13-1 14-2t-6-6q-37-21-86-16t-84 34q-57 49-57 121.5t57 134.5l36 38-16 52q-6 22-11 46t-7 36l-4 28 16-14q28-24 102-44.5t178-31.5q36-4 99.5-5.5t130 0 124 5 82.5 8.5q6 0 17.5 2t22.5 4q55 9 99 23.5t73 32.5z" />
<glyph unicode="&#xe00b;" glyph-name="uniE00B" data-tags="uniE00B" d="M585 741v-74h-366v74h366zM731 960l220-219v-805h-878v1024h658zM878 9v658l-220 220h-512v-878h732zM219 155v74h586v-74h-586zM219 302v73h586v-73h-586zM219 448v73h586v-73h-586z" />
<glyph unicode="&#xe00c;" glyph-name="uniE00C" data-tags="uniE00C" d="M731 960l220-219v-805h-878v1024h658zM878 9v658l-220 220h-512v-878h732zM219 741h439l147-147v-439h-147q0 60-43 103.5t-103 43.5q60 0 103 43t43 103-43 103-103 43-103-43-43-103 43-103 103-43q-60 0-103-43.5t-43-103.5h-147v586z" />
<glyph unicode="&#xe00d;" glyph-name="uniE00D" data-tags="uniE00D" d="M439 375h-73v73h73v-73zM439 521h-73v73h73v-73zM439 667h-73v74h73v-74zM293 594v73h73v-73h-73zM731 960l220-219v-805h-878v1024h658zM878 9v658l-220 220h-219v-73h-73v73h-220v-878h732zM293 741v73h73v-73h-73zM293 448v73h73v-73h-73zM293 302v73h73v-73h73l73-73v-147h-293v147zM439 229h-146v-74h146v74z" />
<glyph unicode="&#xe00e;" glyph-name="uniE00E" data-tags="uniE00E" horiz-adv-x="640" d="M512 768v2q54 0 91-37.5t37-90.5q0-36-17.5-64.5t-46.5-45.5v-18q0-48-22-94t-58-82-82-58-94-22q-36 0-59.5-12t-38.5-30q16-16 25-38t9-48q0-54-37-91t-91-37q-52 0-90 37t-38 91q0 34 17.5 63.5t46.5 46.5v418q-28 16-46 45.5t-18 64.5q0 54 37.5 91t90.5 37q54 0 91-37t37-91q0-34-17.5-63.5t-46.5-46.5v-302q25 13 57 20.5t71 7.5q48 0 88 40t40 88v18q-28 16-46 45.5t-18 64.5q0 54 37.5 91t90.5 37zM128 832q-25 0-44.5-18.5t-19.5-45.5q0-25 19-44.5t45-19.5q27 0 45.5 19t18.5 45q0 27-18.5 45.5t-45.5 18.5zM128 64q27 0 45.5 19t18.5 45q0 27-18.5 45.5t-45.5 18.5q-25 0-44.5-18.5t-19.5-45.5q0-25 19-44.5t45-19.5zM512 576q27 0 45.5 19t18.5 45q0 27-18.5 45.5t-45.5 18.5q-25 0-44.5-18.5t-19.5-45.5q0-25 19-44.5t45-19.5z" />
<glyph unicode="&#xe00f;" glyph-name="uniE00F" data-tags="uniE00F" d="M842 371q-10 10-32.5 15t-57.5 6q-23 0-51-2t-57-6q-13 7-26.5 15.5t-23.5 18.5q-29 27-52.5 63.5t-38.5 77.5q1 4 2 7.5t2 6.5l10 67t5 98q0 4-0.5 6l-1.5 6-2 5q-5 10-13.5 18.5t-22.5 8.5h-11q-15 0-26-7t-15-19q-10-36-1.5-90t26.5-124l-6-16q-13-32-28.5-63.5t-30.5-60.5l-3-5q-15-30-29-55.5t-26-47.5l-18-9q-1 0-17-8.5t-21-11.5q-44-27-72-55.5t-33-52.5q-1-8 0.5-16.5t9.5-12.5l17-9q5-2 11-3.5t12-1.5q31 0 69.5 41t88.5 129q59 19 123 34.5t122 23.5q44-25 94-40.5t84-15.5q6 0 11.5 0.5t9.5 1.5q7 2 12 5.5t9 8.5q6 10 8 23.5t0 27.5q0 4-3 9t-7 9v0zM212 146q5 16 27 44t56 56q2 1 6.5 5.5t9.5 8.5q-35-56-59.5-81.5t-39.5-32.5v0zM478 760q11 0 16.5-21t5.5-45q1-24-4-41.5t-12-29.5q-6 18-8.5 44t-2.5 45l0.5 24t4.5 24v0zM399 323q7 12 14.5 25.5t14.5 27.5q19 35 31 62.5t21 50.5q17-32 38-58.5t47-47.5q3-3 6-5.5t7-5.5q-51-10-95.5-22.5t-83.5-26.5v0 0zM829 326q-3-2-10.5-3t-13.5-1q-18 0-42 8t-56 22q12 1 23.5 1.5t21.5 0.5q19 0 28.5-1t28.5-5q18-5 20.5-12.5t-0.5-9.5v0zM918 731q-17 23-39.5 48.5t-47.5 51.5q-26 25-51.5 47.5t-48.5 39.5q-39 28-59.5 35t-31.5 7h-496q-33 0-56.5-23.5t-23.5-56.5v-864q0-33 23.5-56.5t56.5-23.5h736q33 0 56.5 23.5t23.5 56.5v624q0 11-7 31.5t-35 59.5v0 0zM785 785q23-23 41.5-43.5t31.5-37.5h-154v154q17-13 37.5-31.5t43.5-41.5v0zM896 16q0-7-4.5-11.5t-11.5-4.5h-736q-7 0-11.5 4.5t-4.5 11.5v864q0 7 4.5 11.5t11.5 4.5h496v-224q0-13 9.5-22.5t22.5-9.5h224v-624z" />
<glyph unicode="&#xe010;" glyph-name="uniE010" data-tags="uniE010" d="M512 610q-67 0-114.5-47t-47.5-115q0-67 47-114.5t115-47.5q67 0 114.5 47t47.5 115q0 67-47 114.5t-115 47.5zM836 354l-28-70 58-116-72-72-118 56-70-28-36-110-4-14h-102l-44 124-72 28-116-58-72 72 56 118-28 70-124 40v102l124 46 28 70-52 102-6 14 72 72 118-56 70 28 36 110 4 14h102l44-124 72-28 116 58 72-72-56-118 28-70 124-40v-102z" />
<glyph unicode="&#xe011;" glyph-name="uniE011" data-tags="uniE011" d="M672 768l288-320-288-320-96 96 224 224-224 224zM352 768l96-96-224-224 224-224-96-96-288 320z" />
<glyph unicode="&#xe012;" glyph-name="uniE012" data-tags="uniE012" horiz-adv-x="1022" d="M1012 405q8-6 8-15.5t-8-14.5l-355-355q-5-7-13.5-7t-15.5 7l-191 191q-6 6-6 15t6 15l62 62q5 5 13.5 5t15.5-5l115-117 280 281q5 5 13 5t14-5zM352 325q-41-41-41-99t41-99l114-114h-396v873h714v-397l-141-134-33 30q-39 41-98 41t-98-39zM308 806v-79h397v79h-397zM308 648v-80h397v80h-397zM228 410v79h-79v-79h79zM228 568v80h-79v-80h79zM228 727v79h-79v-79h79zM308 489v-79h79v79h-79z" />
<glyph unicode="&#xe013;" glyph-name="uniE013" data-tags="uniE013" d="M512 896q92 0 173.5-35.5t142.5-96 96.5-142.5 35.5-174-35.5-173.5-96-142.5-142.5-96.5-174-35.5-173.5 35.5-142.5 96.5-96.5 142.5-35.5 173.5 35.5 173.5 96 142.5 142.5 96.5 174 35.5zM512 717q-56 0-105-21t-85.5-57.5-57.5-85.5-21-105q0-29 6-56.5t17-52.5l355 355q-25 11-52.5 17t-56.5 6zM512 179q56 0 105 21t85.5 57.5 57.5 85.5 21 105q0 29-6 56.5t-17 52.5l-355-353q25-12 52.5-18.5t56.5-6.5v0z" />
<glyph unicode="&#xe014;" glyph-name="uniE014" data-tags="uniE014" d="M73-64v1024h658l220-219v-805h-878zM878 667l-220 220h-512v-878h732v658zM439 448h-220v293h220v-293zM366 667h-73v-146h73v146zM366 155h73v-73h-220v73h74v147h-74v73h147v-220zM658 521h73v-73h-219v73h73v146h-73v74h146v-220zM731 82h-219v293h219v-293zM658 302h-73v-147h73v147z" />
<glyph unicode="&#xe015;" glyph-name="uniE015" data-tags="uniE015" d="M512 0q-79 0-149 10t-122.5 27.5-82.5 41-30 49.5v128q0 9 4 16.5t10 15.5q16-21 50.5-38.5t83.5-30.5 109-20 127-7 127 7 109 20 83.5 30.5 50.5 38.5q6-7 10-15t4-17v-128q0-26-30-49.5t-82.5-41-122-27.5-149.5-10zM512 256q-79 0-149 10t-122.5 27.5-82.5 41-30 49.5v128q0 4 1.5 9.5t4.5 10.5q1 3 3 6t5 6q16-21 50.5-38.5t83.5-30.5 109-20 127-7 127 7 109 20 83.5 30.5 50.5 38.5q3-3 4.5-6t3.5-6q3-4 4.5-9.5t1.5-10.5v-128q0-26-30-49.5t-82.5-41-122-27.5-149.5-10zM512 512q-79 0-149 10t-122.5 27.5-82.5 41-30 49.5v128q0 26 30 49.5t82.5 41 122 27.5 149.5 10q79 0 149-10t122.5-27.5 82.5-41 30-49.5v-128q0-26-30-49.5t-82.5-41-122-27.5-149.5-10zM512 832q-106 0-181-18.5t-75-45.5 74.5-45.5 181.5-18.5q106 0 181 18.5t75 45.5-74.5 45.5-181.5 18.5z" />
<glyph unicode="&#xe016;" glyph-name="uniE016" data-tags="uniE016" d="M896 832q25 0 44.5-19t19.5-45v-640q0-27-19-45.5t-45-18.5h-768q-27 0-45.5 18.5t-18.5 45.5v640q0 25 18.5 44.5t45.5 19.5h768zM192 384l64-64 192 192-192 192-64-64 128-128zM704 320v64h-256v-64h256z" />
<glyph unicode="&#xe017;" glyph-name="uniE017" data-tags="uniE017" d="M950 768q30 0 52-22t22-52v-492q0-30-22-52t-52-22h-876q-30 0-52 22t-22 52v492q0 30 22 52t52 22h876zM576 256v384h-128l-96-128-96 128h-128v-384h128v192l96-124 96 124v-192h128zM768 224l160 224h-96v192h-128v-192h-96z" />
<glyph unicode="&#xe018;" glyph-name="uniE018" data-tags="uniE018" horiz-adv-x="1030" d="M113 905h804l-72-822-330-92-328 92zM263 737l26-306h350l-12-130-112-30-112 30-8 80h-100l12-158 208-58h2l204 58 30 310h-368l-10 104h386l8 100h-504z" />
<glyph unicode="&#xe019;" glyph-name="uniE019" data-tags="uniE019" d="M6 116l42 204h170l-18-84 242-92 278 92 38 194h-690l34 168h690l22 110h-690l34 170h860l-152-762-460-152z" />
<glyph unicode="&#xe01a;" glyph-name="uniE01A" data-tags="uniE01A" d="M768 521q-23 0-42.5 8t-35.5 24-24 35.5-8 42.5 8 42.5 24 35.5 35.5 24 42.5 8 42.5-8 35.5-24 24-35.5 8-42.5-8-42.5-24-35.5-35.5-24-42.5-8zM960 887q14 0 25.5-4.5t20.5-13.5q9-10 13.5-21t4.5-25v-750q0-14-4.5-25t-13.5-21q-9-9-20.5-13.5t-25.5-4.5h-896q-14 0-25.5 4.5t-20.5 13.5q-9 10-13.5 21t-4.5 25v750q0 14 4.5 25t13.5 21q9 9 20.5 13.5t25.5 4.5h896zM725 434l226-242v594q0 14-7.5 21t-22.5 7h-818q-13 0-20.5-7t-9.5-21v-594l288 347q9 10 19 14.5t20 4.5q13 0 22.5-4t16.5-12l123-135 9-9q7-5 13.5-7t12.5-2q5 0 12 2.5t15 8.5l41 37q8 5 15.5 8t14.5 3q9 0 16.5-3.5t13.5-10.5v0z" />
<glyph unicode="&#xe01b;" glyph-name="uniE01B" data-tags="uniE01B" d="M901 960q10 0 19-3.5t16-10.5 11-15.5 4-18.5v-693q0-44-7-75.5t-21-49.5q-14-24-39-36t-59-12h-84q-24 0-45 7.5t-39 23.5q-18 15-26.5 34.5t-8.5 43.5 8.5 44 26.5 35q18 16 39 23.5t45 7.5h137v439l-476-87v-530q0-26-7.5-49.5t-21.5-44.5q-2-1-3-2.5t-2-3.5q-1-1-1.5-2.5t-0.5-2.5l-5-5q-17-20-38.5-30.5t-48.5-10.5h-84q-24 0-44.5 7.5t-38.5 23.5q-17 15-25.5 35t-8.5 44 8.5 43.5 25.5 35.5q18 15 38.5 22.5t44.5 7.5h139v654q1 12 6 23t14 22q8 11 18.5 18t23.5 10l498 76q4 1 6.5 1.5t5.5 0.5v0z" />
<glyph unicode="&#xe01c;" glyph-name="uniE01C" data-tags="uniE01C" d="M1018 662q3-54 4.5-107.5t1.5-106.5-1.5-106.5-4.5-107.5q0-34-11-63t-32-52q-21-24-47.5-35.5t-57.5-11.5q-38-2-80-3.5t-86.5-2.5-92.5-1.5-99-0.5-99 0.5-92.5 1.5-86.5 2.5-80 3.5q-31 0-57.5 11.5t-47.5 35.5q-21 23-32 52t-11 63q-3 54-4.5 107.5t-1.5 106.5q0 35 2 88.5t6 125.5q0 34 10.5 63t31.5 52q21 24 47 35.5t57 11.5q37 2 76.5 3.5t82 2.5 88 1.5 93.5 0.5h36q49 0 94.5-0.5t88-1.5 82-2.5 75.5-3.5q31 0 57.5-11.5t47.5-35.5q22-23 32.5-52t10.5-63v0zM414 252l290 196-290 198v-394z" />
<glyph unicode="&#xe01d;" glyph-name="uniE01D" data-tags="uniE01D" d="M402 594l73-73-109-110 109-109-73-73-183 182zM549 521l73 73 183-183-183-182-73 73 109 109zM731 960l220-219v-805h-878v1024h658zM878 9v658l-220 220h-512v-878h732z" />
<glyph unicode="&#xe01e;" glyph-name="uniE01E" data-tags="uniE01E" horiz-adv-x="951" d="M414 641l-97-258q43 0 85-1t85-1q8 0 16 0.5t16 0.5q-22 65-48 130.5t-57 128.5v0zM0 9l1 45q40 13 79 17t57 50l296 766h73q1-3 3-6t3-6l117-274q16-38 31.5-76.5t31-76.5 31.5-76 32-75q19-45 36-90.5t38-88.5q3-7 8.5-17.5t11.5-15.5q14-11 46-16t52-12q2-9 3-17t1-16q0-4-0.5-7.5t-0.5-7.5q-54 0-108.5 4.5t-108.5 4.5q-57 0-113-3.5t-112-4.5q0 11 0.5 22t1.5 22l75 16q12 3 29 8t17 21q0 8-11.5 39t-26.5 67-28.5 67.5-16.5 40.5l-257 1q-6-13-18-43.5t-24-63.5-21.5-61.5-9.5-36.5q0-33 46-40t71-10v-41t-1-8q-49 0-99 6t-100 6q-6 0-14-2t-14-3q-27-5-53.5-6.5t-53.5-1.5v0z" />
<glyph unicode="&#xe020;" glyph-name="uniE020" data-tags="uniE020" d="M1008 720q8-6 12-14t4-18v-642q0-12-4-20t-12-12q-5-3-9-4t-7-1q-7 0-11.5 1t-6.5 4l-222 151-222-151q-9-5-17.5-5t-16.5 5l-222 151-221-151q-8-5-17-5t-18 5-13.5 13-4.5 19v642q0 10 4 18t12 14l240 162q9 5 17.5 5t16.5-5l222-151 224 151q9 5 17.5 5t16.5-5zM235 226v553l-162-114v-553zM309 226l166-112v295l-9-25q-5 1-16.5 7t-28.5 16l18 30q9-6 18-10.5t18-8.5v249l-166 112v-230q12-7 19.5-11t9.5-5l-23-30-2 2q-1 1-2 1.5t-2 0.5v-281zM549 114l166 112v249l-2-2v-2l-14-14-27 25 14 14q2 1 4.5 3.5t4.5 6.5 4.5 7.5 4.5 5.5l11-12v272l-166-112v-256h16l6-34h-5t-6-1-5.5-1h-5.5v-261zM951 114v553l-162 112v-201q2 1 4.5 2t5.5 1 5 0.5 3 1.5l9-37-11-2q-6-1-10-2t-6-3v-313zM222 528q-8-2-16-6t-16-10l-25 27q9 7 15.5 11.5t11.5 7.5q3 2 8.5 4.5t12.5 4.5l11-34q-1-2-1.5-2.5t0.5-0.5v-0.5t-1-1.5v0zM606 425q15 9 23.5 15t10.5 8l25-27q-9-10-20-17t-23-13zM153 448v-2l-34 11v2q4 14 9.5 25.5t10.5 20.5l30-20q-3-5-7-14t-9-23v0zM379 489q6-7 12.5-13t13.5-12l-26-27-5.5 5.5t-7.5 8.5q-5 6-8.5 9.5l-12.5 12.5 28 25q1-1 2.5-3t3.5-6v0zM859 507l-25 28 23 23-23 23 25 27 23-25 25 25 26-27-23-23 23-23-26-28-25 26z" />
<glyph unicode="&#xe021;" glyph-name="uniE021" data-tags="uniE021" d="M591 960l-1-1-573-108q-8-2-12.5-7.5t-4.5-13.5v0 0-764q0-8 4.5-13.5t12.5-7.5l573-108q1-1 2-1h2q8 0 14 6t6 14v103h349q16 0 28.5 12t12.5 29v696q0 17-12.5 29t-28.5 12h-349v103q0 8-6 14t-14 6h-3zM573 915v-934l-532 102v730zM614 796h349v-696h-349v133l31-31 103 103-103 102-31-31v277h164v-164h-82l103-102 102 102h-82v205h-205v102zM188 639v-383h86v132h41q35 0 62.5 9t48.5 27 31.5 41 10.5 52q0 61-36.5 91.5t-108.5 30.5h-135zM274 573h34q34 0 51.5-15t17.5-44q0-30-17.5-45t-51.5-15h-34v119z" />
<glyph unicode="&#xe022;" glyph-name="c" data-tags="c" d="M632.32 351.168c-34.496-60.47-98.56-100.576-171.99-100.576-108.99 0-197.344 88.354-197.344 197.344s88.354 197.344 197.344 197.344c72.523 0 135.91-39.121 170.207-97.411l172.983 98.275c-69.819 119.184-197.254 197.957-343.087 197.957-218.864 0-396.288-177.424-396.288-396.288s177.424-396.288 396.288-396.288c146.556 0 274.53 79.556 343.094 197.837z" />
<glyph unicode="&#xe023;" glyph-name="c2" data-tags="c" d="M471.744 190.496c-40.002-18.74-86.863-29.676-136.278-29.676-4.663 0-9.303 0.097-13.918 0.29-3.169-0.236-7.649-0.359-12.158-0.359-69.33 0-131.91 28.904-176.345 75.32-43.146 49.61-69.395 114.747-69.395 186.016 0 4.961 0.127 9.893 0.379 14.792-0.21 3.235-0.313 7.834-0.313 12.456 0 78.102 29.527 149.307 78.027 203.061 47.843 50.868 115.933 82.717 191.462 82.717 3.313 0 6.611-0.061 9.894-0.183 2.362 0.095 5.7 0.141 9.049 0.141 42.88 0 83.993-7.563 122.078-21.429l-2.481-119.562c-32.936 20.902-73.050 33.311-116.062 33.311-1.294 0-2.586-0.011-3.875-0.034-1.568 0.075-3.635 0.116-5.712 0.116-44.544 0-84.671-18.909-112.792-49.139-28.359-32.91-45.577-75.948-45.577-123.008 0-3.579 0.1-7.135 0.296-10.664-0.181-2.386-0.272-5.752-0.272-9.14 0-45.292 16.223-86.795 43.176-119.014 26.615-29.198 65.166-47.634 108.023-47.634 2.328 0 4.643 0.054 6.945 0.162 0.271-0.018 0.976-0.021 1.681-0.021 46.015 0 88.93 13.27 125.129 36.192zM547.584 485.472v75.008h75.008v-75.008h75.008v-74.976h-75.008v-74.976h-75.008v74.976h-74.944v75.008l74.944-0.032zM810.016 485.472v75.008h75.008v-75.008h74.976v-74.976h-74.976v-74.976h-75.008v74.976h-74.944v75.008l74.944-0.032z" />
<glyph unicode="&#xe900;" glyph-name="c3" data-tags="c" d="M542.72 943.923c-5.018-0.819-12.8-3.686-17.408-6.451-2.56-1.536-22.528-14.643-44.544-29.184-21.914-14.541-43.622-28.774-48.128-31.744-83.046-54.272-197.427-130.458-201.011-133.837-2.97-2.867-31.13-44.749-79.77-118.579-41.37-62.771-84.173-127.59-95.13-144.077-21.504-32.358-24.576-37.888-26.317-47.923-2.765-16.384 4.71-40.141 18.534-58.266 5.325-7.066 102.298-104.96 113.562-114.688 3.994-3.482 8.909-6.861 10.752-7.475s16.486-5.939 32.563-11.878l29.184-10.65 5.222-14.746c11.469-32.768 23.347-54.067 43.213-77.722 10.24-12.186 158.822-160.358 164.864-164.352 2.662-1.741 6.656-3.277 9.728-3.686 2.97-0.41 85.811-0.819 184.218-0.819l178.79-0.102 1.126 3.277c0.512 1.843 10.035 33.587 21.094 70.451s20.685 67.584 21.402 68.096c0.717 0.614 30.413 10.445 65.946 22.016l64.512 20.992 0.614 7.168c1.024 13.005 2.765 358.195 1.843 363.827-0.614 3.482-2.253 7.27-4.608 10.752-4.608 6.656-148.992 150.733-159.437 159.13-22.016 17.613-47.206 31.027-75.571 40.346-6.451 2.048-11.981 4.198-12.493 4.608-0.41 0.512-5.939 14.95-12.288 32.154s-12.186 32.666-13.005 34.304c-2.15 4.403-112.026 113.766-120.627 120.115-18.33 13.619-41.984 21.402-56.832 18.944zM563.405 925.594c6.963-2.048 18.33-7.782 24.883-12.493 2.765-1.946 30.208-28.57 60.826-58.982 38.912-38.81 56.218-56.627 57.446-59.494 2.765-6.042 20.685-54.886 20.275-55.194-0.205-0.205-9.011 0.41-19.763 1.229-15.872 1.229-58.982 1.638-232.96 2.15l-213.504 0.614 27.955 18.432c15.36 10.138 37.683 24.883 49.664 32.768 72.909 48.23 189.85 125.44 193.946 128 9.216 5.734 18.637 6.656 31.232 2.97zM847.565 119.194c-2.355-1.536-29.184-13.414-59.699-26.419l-55.296-23.757-55.808 19.661c-30.618 10.752-64 22.426-74.138 26.010-10.138 3.482-91.443 32.051-180.736 63.488-89.293 31.334-164.352 57.754-166.81 58.573-2.458 0.922-4.71 2.458-4.915 3.379-0.307 1.024-1.331 2.048-2.253 2.355-2.15 0.512-3.789 9.011-5.222 26.317-0.614 6.861-1.024 105.062-1.024 237.568v225.792l610.202-610.202-4.301-2.765zM746.803 725.299c0.922-0.512 1.741-1.536 1.741-2.355s37.99-109.261 84.48-241.050c46.49-131.789 84.48-240.128 84.48-240.845 0-0.614-10.65-25.395-23.654-55.194l-23.654-53.965-7.066-3.174-7.066-3.072 0.614 2.662c0.41 1.536 11.469 27.546 24.781 57.856 22.323 50.995 23.962 55.296 23.040 58.368-2.867 9.011-165.581 469.811-167.322 473.702-1.024 2.458-2.15 5.632-2.355 6.963-0.512 2.355-0.41 2.355 4.813 1.741 2.97-0.41 6.144-1.126 7.168-1.638zM437.248 161.28c198.861-69.837 259.686-91.238 280.781-98.611l14.95-5.222 55.501 23.757c30.618 13.107 55.808 23.654 56.013 23.347 0.41-0.307-19.456-67.789-32.563-110.49l-3.072-9.933h-348.774l-3.994 3.174c-7.885 6.246-155.853 154.419-162.611 162.816-9.626 12.083-17.51 24.064-24.269 37.376-5.53 10.957-13.312 29.594-14.746 35.43l-0.717 2.867 5.427-1.946c3.072-1.024 83.149-29.184 178.074-62.566z" />
<glyph unicode="&#xe901;" glyph-name="hpp" data-tags="hpp" d="M76.64 144v608h74.624v-218.144c30.814 37.116 76.965 60.576 128.596 60.576 1.152 0 2.301-0.012 3.448-0.035 1.178 0.039 2.766 0.060 4.358 0.060 29.369 0 57.076-7.119 81.489-19.724 21.769-11.187 39.669-29.613 50.36-52.127 10.323-26.457 16.135-56.288 16.135-87.477 0-4.196-0.105-8.367-0.313-12.512l0.023-278.618h-74.624v279.104c0.289 3.060 0.454 6.617 0.454 10.212 0 27.027-9.307 51.881-24.892 71.53-16.074 15.696-38.361 25.53-62.945 25.53-1.939 0-3.865-0.061-5.774-0.182 0.197 0.013 0.12 0.013 0.044 0.013-22.975 0-44.454-6.402-62.752-17.519-18.035-10.353-32.468-26.416-40.821-45.723-8.242-22.203-12.871-47.123-12.871-73.124 0-3.090 0.065-6.164 0.195-9.222l-0.015-240.619zM535.264 485.472v75.008h75.008v-75.008h75.008v-74.976h-75.008v-74.976h-75.008v74.976h-74.944v75.008l74.944-0.032zM797.696 485.472v75.008h75.008v-75.008h74.976v-74.976h-74.976v-74.976h-75.008v74.976h-74.976v75.008l74.976-0.032z" />
<glyph unicode="&#xe902;" glyph-name="arduino" data-tags="arduino" d="M236.308 684.308c-130.907 0-236.308-105.401-236.308-236.308s105.401-236.308 236.308-236.308c95.179 0 172.287 56.594 225.231 109.538 20.799 20.799 37.032 41.265 50.462 59.077 13.43-17.812 29.662-38.278 50.462-59.077 52.944-52.944 130.051-109.538 225.231-109.538 130.907 0 236.308 105.401 236.308 236.308s-105.401 236.308-236.308 236.308c-95.18 0-172.287-56.594-225.231-109.538-20.497-20.497-37.114-40.203-50.462-57.846-13.297 17.509-29.106 37.519-49.231 57.846-52.563 53.094-129.713 109.538-226.462 109.538zM236.308 605.538c64.728 0 124.933-42.017 169.846-87.385 35.283-35.639 48.033-56.567 56.615-70.154-8.983-13.791-22.259-34.567-57.846-70.154-45.518-45.518-106.256-87.385-168.615-87.385-89.647 0-157.538 67.892-157.538 157.538s67.892 157.538 157.538 157.538zM787.692 605.538c89.647 0 157.538-67.892 157.538-157.538s-67.892-157.538-157.538-157.538c-62.359 0-123.098 41.867-168.615 87.385-35.587 35.587-48.863 56.362-57.846 70.154 8.983 13.791 22.259 34.567 57.846 70.154 45.518 45.518 106.256 87.385 168.615 87.385zM760.615 526.769v-51.692h-51.692v-54.154h51.692v-51.692h54.154v51.692h51.692v54.154h-51.692v51.692h-54.154zM157.538 475.077v-50.462h157.538v50.462h-157.538z" />
<glyph unicode="&#xe903;" glyph-name="elixir" data-tags="elixir" d="M569.6 685.088c66.528-146.688 244.48-208 228.512-399.168-18.624-224.544-177.632-281.088-266.112-285.088-6.533-0.538-14.141-0.845-21.821-0.845-141.068 0-257.95 103.552-278.779 238.79-51.624 239.751 173.56 604.999 303.288 657.223-0.54-8.546-0.848-18.533-0.848-28.592 0-65.734 13.141-128.399 36.939-185.512zM564.288 81.664c0.228 0.929 0.358 1.996 0.358 3.094 0 2.74-0.814 5.29-2.214 7.421-18.944 35.149-185.888 52.589-220.992 56.013 15.301-15.691 32.467-29.447 51.171-40.943 26.988-16.708 57.306-28.381 89.749-33.77 27.144-4.071 76.584-7.335 81.96 8.217zM583.936 620.224c143.040-154.336 206.24-159.328 199.584-335.296-7.968-207.232-145.376-262.112-225.856-269.44-134.4-17.632-239.84 48.896-267.456 181.952-56.224 216.544 125.088 569.824 242.176 623.040 3.186-73.332 21.996-141.575 53.158-202.447zM556.32 642.528c95.488-130.528 221.888-120.928 243.68-311.040 3.008-221.536-115.2-297.056-199.584-318.336-144-40.928-272.448 20.64-323.008 160-97.12 224 84.832 592.448 201.92 669.28 10.883-75.367 37.69-142.87 76.937-201.319z" />
<glyph unicode="&#xe904;" glyph-name="reactjs" data-tags="reactjs" d="M592 448.832c0-44.183-35.817-80-80-80s-80 35.817-80 80c0 44.183 35.817 80 80 80s80-35.817 80-80zM512 265.408c-6.541-0.169-14.241-0.266-21.965-0.266-93.518 0-183.735 14.133-268.632 40.379-38.472 12.764-77.394 34.126-111.276 61.481-25.488 18.427-43.117 47.807-46.097 81.398-0.031 53.328 58.081 105.168 155.425 139.088 83.302 27.423 179.182 43.239 278.755 43.239 4.848 0 9.688-0.037 14.518-0.112 3.082 0.066 7.582 0.098 12.089 0.098 98.524 0 193.421-15.528 282.378-44.271 36.87-12.24 74.488-32.575 107.513-58.496 24.965-17.514 42.355-46.024 45.261-78.7 0.030-55.391-64.93-111.103-169.57-145.727-78.648-24.269-169.060-38.245-262.737-38.245-5.507 0-11.003 0.048-16.487 0.145zM512 592.352c-3.555 0.051-7.751 0.080-11.953 0.080-95.704 0-187.896-15.032-274.345-42.865-83.27-29.503-123.43-72.255-123.43-100.639 0-29.696 43.168-76.384 137.952-108.8 74.875-23.297 160.961-36.716 250.181-36.716 7.594 0 15.165 0.097 22.712 0.29 3.582-0.113 9.122-0.164 14.675-0.164 89.34 0 175.582 13.265 256.864 37.933 92.144 30.976 136.944 77.728 136.944 107.36-3.44 21.117-15.347 38.937-32.053 50.167-29.083 22.623-62.694 40.652-99.11 52.45-80.999 26.24-171.546 40.997-265.54 40.997-4.535 0-9.061-0.034-13.58-0.103zM330.24 49.824c-0.577-0.014-1.256-0.022-1.937-0.022-14.977 0-29.044 3.899-41.241 10.738-45.398 26.213-61.27 102.437-42.038 203.717 23.157 103.929 60.719 195.822 111.108 279.085l-2.308-4.109c49.786 88.214 109.957 163.688 180.243 228.335 31.329 28.632 67.188 51.647 106.528 67.962 15.904 7.36 31.741 11.142 48.461 11.142s32.557-3.782 46.703-10.536c46.993-27.175 62.769-111.271 40.529-219.207-23.911-98.556-60.394-185.343-108.418-264.339-45.854-83.297-104.178-158.114-172.471-222.468-32.258-29.573-69.649-53.254-110.749-69.615-17.848-6.756-35.659-10.329-54.259-10.679zM386.976 520.224c-45.828-75.721-81.813-163.576-103.166-257.004-18.85-99.284-1.858-155.38 22.846-169.652 25.6-14.816 87.744-0.768 163.2 65.152 65.608 62.034 121.282 133.651 164.994 212.798 46.067 76.104 81.055 159.070 102.798 247.252 22.192 107.663 4.112 169.871-21.552 184.655-7.906 3.12-17.063 4.93-26.643 4.93-12.073 0-23.474-2.873-33.559-7.973-36.718-15.355-68.606-36.035-96.122-61.388-67.534-62.266-125.014-134.521-170.296-214.585zM693.664 49.408c-43.36 0-98.432 26.24-155.776 75.552-72.231 65.893-133.411 142.264-181.523 227.025l-2.381 4.559c-47.457 78.029-84.699 168.576-106.778 264.905-6.584 29.652-9.676 56.62-9.676 84.311 0 17.584 1.247 34.878 3.657 51.796 2.7 31.073 20.012 59.526 45.321 77.416 47.924 27.78 128.66-0.54 211.060-73.692 67.213-63.595 124.547-136.671 170.092-217.291 49.827-80.882 87.377-169.356 110.236-263.572 6.694-29.672 9.802-56.615 9.802-84.284 0-19.27-1.507-38.187-4.41-56.641-3.174-31.891-21.12-61.047-47.188-79.477-11.937-6.776-25.785-10.628-40.533-10.628-0.669 0-1.336 0.008-2.001 0.024zM387.104 375.808c48.461-85.41 106.903-158.5 175.096-221.141 72.616-62.507 129.704-75.819 154.248-61.387 25.6 14.88 44.48 75.616 25.024 173.888-23.273 95.892-59.276 180.331-106.816 256.856-43.615 77.885-98.347 147.86-162.112 208.414-77.952 69.226-140.864 84.618-166.496 69.77-15.675-12.81-25.988-31.671-27.349-52.966-1.846-13.215-2.893-28.228-2.893-43.486 0-25.097 2.834-49.531 8.2-73.002 21.961-95.833 57.671-182.403 105.331-260.913z" />
<glyph unicode="&#xe906;" glyph-name="elm" data-tags="elm" d="M512 472.576l193.632 193.632h-387.264l193.632-193.632zM88.576 896l195.040-195.040h423.936l-195.040 195.040h-423.936zM536.57 448.003l211.974 211.974 211.001-211.001-211.974-211.974-211.001 211.001zM960 497.664v398.336h-398.336l398.336-398.336zM487.424 448l-423.424 423.424v-846.848l423.424 423.424zM772.16 212.416l187.84-187.84v375.68l-187.84-187.84zM512 423.424l-423.424-423.424h846.848l-423.424 423.424z" />
<glyph unicode="&#xe907;" glyph-name="go" data-tags="go" d="M501.887 893.473c-74.269-5.877-144.947-19.511-194.404-62.873-13.82 8.888-27.459 12.545-40.076 12.34-60.182-0.979-97.104-89.61-19.66-115.326-19.974-77.11-7.561-155.518-2.207-234.092-15.422-0.233-29.717-5.11-41.535-13.314-7.017-5.118-20.586-21.919-6.41-28.639v0.191c1.28-26.432 27.678-14.207 39.646-5.951 4.639 3.202 7.923 4.009 10.271 4.896 0.204-10.791 0.155-21.582-0.279-32.369-3.744-93.184-28.256-217.729 23.488-301.473 8.481-13.731 18.827-25.759 30.555-36.26-18.944-13.639-51.209-33.141-34.367-59.682 4.544-4.448 4.288-1.855 7.232-3.199 1.664-3.008 8.863-17.792 27.615-6.592 18.612 10.234 31.575 29.754 52.697 35.254 41.797-19.223 89.799-27.667 132.875-29.201 62.062-2.216 132.39 6.405 188.252 36.631 25.413-8.495 41.803-63.715 70.885-37.078 30.435 18.369-6.272 56.144-26.689 68.914 14.344 13.708 26.617 29.85 36.096 48.781 41.409 82.761 34.994 183.86 29.063 275.533 2.313-0.908 4.464-2.052 6.266-3.324 7.804-5.726 17.113-9.521 27.488-10.705l-0.004 0.004h0.064c2.603 0 5.070 0.589 7.252 1.643 5.124 3.006 8.564 8.573 8.564 14.943 0 0.153-0.001 0.307 0.063 0.467 3.42 1.684 5.877 5.023 6.32 9.166-1.012 9.552-6.201 17.857-13.563 22.959-12.447 8.693-27.59 13.791-43.924 13.791-0.442 0-0.88-0.010-1.318-0.018-3.668 93.714 4.483 188.586-19.758 278.771 76.036 26.804 39.637 117.759-20.396 116.521-12.401-0.256-25.811-4.452-39.445-13.955-52.333 45.090-124.713 53.242-200.654 53.244h-0.002zM610.359 845.91c33.711-0.518 66.098-19.114 75.592-59.639 24.832-106.592-148.031-134.399-166.207-28.799-3.402 55.098 42.526 87.576 87.35 88.432 1.089 0.021 2.178 0.022 3.266 0.006zM397.189 837.031c39.516 0.327 78.386-22.695 81.402-72.807 5.568-92.224-141.823-115.904-165.375-23.84h-0.033c-12.32 61.845 36.314 96.251 84.006 96.646zM737.859 818.053c7.077 0.141 13.381-2.903 17.629-10.949 6.441-12.124 1.679-20.629-7.168-27.156-0.225 0.562-0.443 1.124-0.672 1.686-6.412 12.608-13.593 23.814-21.445 33.791 3.975 1.579 7.923 2.555 11.656 2.629zM259.484 804.549c5.505-0.109 11.478-2.144 17.316-5.252l-19.969-37.697c-13.344 7.072-23.137 16.64-14.977 32 4.248 8.046 10.552 11.090 17.629 10.949zM562.367 789.057c-13.52 0-24.479-12.064-24.479-26.945s10.959-26.943 24.479-26.943c13.52 0 24.48 12.062 24.48 26.943s-10.96 26.945-24.48 26.945zM353.855 782.336c-13.75 0-24.895-12.062-24.895-26.943s11.145-26.945 24.895-26.945c13.75 0 24.896 12.064 24.896 26.945s-11.146 26.943-24.896 26.943zM510.359 713.297c15.376-0.189 30.141-6.567 33.641-19.377 1.037-3.795 0.614-7.205-0.887-10.223-1.016-1.411-3.126-4.308-6.271-8.203-4.069-5.038-11.033-9.699-26.932-10.605-16.645-0.949-23.705 3.546-29.273 8.807-5.462 5.16-9.704 9.843-9.869 10.025-0.004 0.030-0.012 0.058-0.016 0.088l-0.096 0.031c-0.846 19.71 19.934 29.7 39.703 29.457zM543.533 683.336c21.316-10.163 44.818-29.787 26.26-49.896-17.888-19.392-36.065 3.745-58.465 4.193-19.392 2.592-50.495-24.866-64.334 0.148-1.809 4.009-2.814 8.459-2.814 13.143 0 15.7 11.311 28.746 26.336 31.475l-0.004-0.037c0 0 1.519-5.736 7.277-11.176s15.777-10.605 32.646-9.643c16.102 0.918 24.429 6.364 28.686 11.635 3.99 4.941 4.377 9.577 4.412 10.158zM511.059 627.152l32.77-11.506c0.816-7.402 1.281-15.986 1.281-24.678 0-6.733-0.279-13.402-0.826-19.994-3.462-5.761-10.342-6.464-16.262-9.152-8.335 1.344-15.142 6.817-18.34 14.213-0.342 5.109-0.502 10.902-0.502 16.734 0 11.62 0.637 23.094 1.879 34.383zM501.117 626.996c-1.242-11.289-1.879-22.761-1.879-34.381 0-5.832 0.161-11.627 0.443-16.58-29.472-38.816-46.369 13.823-35.521 40.127l36.957 10.834z" />
</font>
</defs>
</svg>
