<?xml version="1.0" encoding="utf-8"?>
<!-- Generator: Adobe Illustrator 16.0.0, SVG Export Plug-In . SVG Version: 6.00 Build 0)  -->
<!DOCTYPE svg PUBLIC "-//W3C//DTD SVG 1.1//EN" "http://www.w3.org/Graphics/SVG/1.1/DTD/svg11.dtd">
<svg version="1.1" xmlns="http://www.w3.org/2000/svg" xmlns:xlink="http://www.w3.org/1999/xlink" x="0px" y="0px" width="128px"
	 height="128px" viewBox="-16 -16 128 128" enable-background="new -16 -16 128 128" xml:space="preserve">
<g id="accessory" display="none">
	<g display="inline">
		<path d="M78.267,51.601h-24c-1.544,0-2.801,1.256-2.801,2.799v24c0,1.545,1.257,2.801,2.801,2.801h24c1.543,0,2.8-1.256,2.8-2.801
			v-24C81.066,52.856,79.81,51.601,78.267,51.601z M77.066,77.2H55.466v-21.6h21.601V77.2z"/>
		<path d="M17.466,44.4h24c1.544,0,2.8-1.256,2.8-2.8V17.601c0-1.544-1.256-2.8-2.8-2.8h-24c-1.544,0-2.8,1.256-2.8,2.8V41.6
			C14.667,43.144,15.922,44.4,17.466,44.4z M18.667,18.801h21.6V40.4h-21.6V18.801z"/>
		<path d="M66.265,46.399c0.001,0,0.002,0,0.002,0c9.264,0,16.8-7.532,16.8-16.792c0-9.268-7.536-16.807-16.8-16.807
			s-16.801,7.539-16.801,16.807c0,4.484,1.748,8.701,4.922,11.873C57.562,44.652,61.778,46.399,66.265,46.399z M66.267,16.8
			c7.058,0,12.8,5.745,12.8,12.807c0,7.053-5.742,12.792-12.8,12.792c-0.001,0-0.001,0-0.002,0c-3.418,0-6.632-1.331-9.049-3.748
			c-2.418-2.417-3.75-5.629-3.75-9.044C53.466,22.545,59.208,16.8,66.267,16.8z"/>
		<path d="M29.466,49.602c-9.264,0-16.8,7.532-16.8,16.792c0,9.268,7.536,16.807,16.8,16.807s16.8-7.539,16.8-16.807
			C46.266,57.134,38.73,49.602,29.466,49.602z M29.466,79.2c-7.058,0-12.8-5.744-12.8-12.807c0-7.054,5.742-12.792,12.8-12.792
			s12.8,5.738,12.8,12.792C42.266,73.456,36.524,79.2,29.466,79.2z"/>
	</g>
</g>
<g id="accessory_x5F_bt_x5F_keyboard" display="none">
	<g display="inline">
		<rect x="33.27" y="59.07" width="28.8" height="4"/>
		<rect x="22.925" y="45.798" width="6.4" height="4.8"/>
		<rect x="22.925" y="34.13" width="6.4" height="4.8"/>
		<rect x="33.796" y="45.798" width="6.399" height="4.8"/>
		<rect x="33.796" y="34.13" width="6.399" height="4.8"/>
		<rect x="44.667" y="45.798" width="6.4" height="4.8"/>
		<rect x="44.667" y="34.13" width="6.4" height="4.8"/>
		<rect x="55.536" y="45.798" width="6.4" height="4.8"/>
		<rect x="55.536" y="34.13" width="6.4" height="4.8"/>
		<rect x="66.407" y="45.798" width="6.4" height="4.8"/>
		<rect x="66.407" y="34.13" width="6.4" height="4.8"/>
		<path d="M83.281,21.274h-70.83c-1.385,0-2.511,1.127-2.511,2.513v48.429c0,1.385,1.126,2.51,2.511,2.51h70.83
			c1.384,0,2.511-1.125,2.511-2.51V23.785C85.792,22.4,84.665,21.274,83.281,21.274z M81.94,70.874H13.792V25.125H81.94V70.874z"/>
	</g>
</g>
<g id="accessory_x5F_gamepad" display="none">
	<g display="inline">
		<path d="M86.266,43.476C85.815,30.312,74.612,20,60.759,20H34.975C21.125,20,9.92,30.312,9.466,43.545v22.944
			c0,5.244,4.443,9.511,9.904,9.511c2.446,0,4.797-0.86,6.618-2.423l10.583-10.78C38.725,62.8,44.278,62.8,47.867,62.8
			c3.587,0,9.14,0,11.294-0.003l10.439,10.661l0.125,0.119C71.544,75.14,73.896,76,76.345,76c5.471,0,9.922-4.267,9.922-9.511
			L86.266,43.476z M82.267,66.489c0,3.039-2.656,5.511-5.922,5.511c-1.466,0-2.865-0.499-3.951-1.406L61.429,59.396l-0.605-0.609
			l-0.854,0.01c-0.242,0.002-5.332,0.004-12.103,0.004c-6.771,0-11.861-0.002-12.079-0.004l-0.872-0.023l-11.592,11.82
			C22.235,71.501,20.834,72,19.371,72c-3.256,0-5.904-2.472-5.904-5.511l-0.001-22.876C13.843,32.615,23.292,24,34.975,24h25.784
			c11.686,0,21.133,8.615,21.508,19.544V66.489z"/>
		<path d="M71.066,42c-3.309,0-6,2.691-6,6s2.691,6,6,6s6-2.691,6-6S74.375,42,71.066,42z M71.066,50c-1.103,0-2-0.897-2-2
			c0-1.103,0.897-2,2-2s2,0.897,2,2C73.066,49.103,72.169,50,71.066,50z"/>
		<path d="M59.866,30c-3.309,0-6,2.691-6,6s2.691,6,6,6s6-2.691,6-6S63.175,30,59.866,30z M59.866,38c-1.104,0-2-0.897-2-2
			s0.896-2,2-2s2,0.897,2,2S60.97,38,59.866,38z"/>
		<polygon points="33.066,32.8 29.066,32.8 29.066,40.4 21.466,40.4 21.466,44.4 29.066,44.4 29.066,51.999 33.066,51.999 
			33.066,44.4 40.667,44.4 40.667,40.4 33.066,40.4 		"/>
	</g>
</g>
<g id="accessory_x5F_saction_x5F_mouse" display="none">
	<g display="inline">
		<path d="M53.683,15.4h-3.828v-5.2h-3.974v5.2h-3.83c-9.807,0-17.785,7.971-17.785,17.77v29.466
			c0,12.773,10.587,23.164,23.601,23.164s23.599-10.391,23.599-23.164V33.169C71.466,23.371,63.488,15.4,53.683,15.4z
			 M67.466,62.636c0,10.567-8.791,19.164-19.599,19.164c-10.808,0-19.601-8.597-19.601-19.164V33.169
			c0-7.593,6.185-13.77,13.785-13.77h11.631c7.6,0,13.783,6.177,13.783,13.77V62.636z"/>
		<rect x="45.867" y="28.2" width="4" height="17.601"/>
	</g>
</g>
<g id="air_x5F_purifier">
	<g>
		<path d="M70.267,12.4h-44.8c-3.75,0-6.8,3.051-6.8,6.8v57.6c0,3.75,3.05,6.801,6.8,6.801h44.8c3.749,0,6.8-3.051,6.8-6.801V19.2
			C77.066,15.451,74.016,12.4,70.267,12.4z M73.066,76.8c0,1.544-1.257,2.801-2.8,2.801h-44.8c-1.544,0-2.8-1.257-2.8-2.801V19.2
			c0-1.543,1.256-2.8,2.8-2.8h44.8c1.543,0,2.8,1.256,2.8,2.8V76.8z"/>
		<rect x="27.066" y="24.8" width="11.2" height="4"/>
		<rect x="27.066" y="33.835" width="11.2" height="4"/>
		<rect x="42.268" y="24.8" width="11.2" height="4"/>
		<rect x="42.268" y="33.835" width="11.2" height="4"/>
		<rect x="57.469" y="24.8" width="11.2" height="4"/>
		<rect x="57.469" y="33.835" width="11.2" height="4"/>
	</g>
</g>
<g id="av_x5F_360_x5F_r7" display="none">
	<path display="inline" d="M61.466,81.2h-11.6v-2.549c10.915-1.569,19.2-15.869,19.2-33.851c0-19.066-9.313-34-21.2-34
		c-11.888,0-21.2,14.934-21.2,34c0,17.982,8.285,32.282,19.2,33.851V81.2H34.266c-1.104,0-2,0.895-2,2c0,1.104,0.896,2,2,2h11.601h4
		h11.6c1.105,0,2-0.896,2-2C63.466,82.095,62.571,81.2,61.466,81.2z M47.867,14.8c9.324,0,17.2,13.738,17.2,30
		c0,5.5-0.903,10.71-2.458,15.2H33.124c-1.553-4.489-2.457-9.699-2.457-15.2C30.667,28.539,38.543,14.8,47.867,14.8z M34.773,64
		H60.96c-3.184,6.556-7.914,10.8-13.093,10.8C42.687,74.8,37.957,70.556,34.773,64z"/>
</g>
<g id="av_x5F_samsung_x5F_m7" display="none">
	<g display="inline">
		<path d="M70.267,13.2h-44.8c-1.544,0-2.8,1.257-2.8,2.8v64c0,1.544,1.256,2.8,2.8,2.8h44.8c1.543,0,2.8-1.256,2.8-2.8V16
			C73.066,14.457,71.81,13.2,70.267,13.2z M69.066,78.8h-42.4V17.2h42.4V78.8z"/>
		<path d="M47.867,74.8c8.602,0,15.601-6.998,15.601-15.6S56.469,43.6,47.867,43.6c-8.602,0-15.6,6.999-15.6,15.601
			S39.265,74.8,47.867,74.8z M47.867,47.6c6.396,0,11.601,5.204,11.601,11.601s-5.205,11.6-11.601,11.6
			c-6.396,0-11.6-5.203-11.6-11.6S41.471,47.6,47.867,47.6z"/>
		<path d="M47.867,66.399c3.97,0,7.2-3.229,7.2-7.199s-3.23-7.2-7.2-7.2c-3.97,0-7.2,3.229-7.2,7.2S43.897,66.399,47.867,66.399z
			 M47.867,55.2c2.206,0,4,1.795,4,4s-1.794,4-4,4c-2.206,0-4-1.795-4-4S45.662,55.2,47.867,55.2z"/>
		<path d="M47.867,38c4.191,0,7.599-3.41,7.599-7.6c0-4.191-3.408-7.6-7.599-7.6s-7.601,3.409-7.601,7.6
			C40.266,34.59,43.676,38,47.867,38z M47.867,26.8c1.985,0,3.599,1.614,3.599,3.6c0,1.985-1.614,3.6-3.599,3.6
			c-1.985,0-3.601-1.615-3.601-3.6C44.266,28.415,45.881,26.8,47.867,26.8z"/>
	</g>
</g>
<g id="av_x5F_soundbar_x5F_h750" display="none">
	<g display="inline">
		<path d="M16.872,59.624h61.991c1.657,0,3.005-1.348,3.005-3.006v-37.99c0-1.656-1.348-3.005-3.005-3.005H16.872
			c-1.656,0-3.004,1.349-3.004,3.005v37.99C13.867,58.276,15.215,59.624,16.872,59.624z M17.867,19.624h60v36h-60V19.624z"/>
		<path d="M83.466,65.224h-71.2c-1.543,0-2.8,1.256-2.8,2.8v9.845c0,1.398,1.174,2.494,2.674,2.494c0.082,0,0.165-0.003,0.256-0.011
			l0.377-0.032c11.156-0.92,22.635-1.366,35.094-1.366c12.577,0,24.156,0.454,35.411,1.394l0.473,0.029
			c0.768,0,1.479-0.359,1.956-0.984c0.36-0.473,0.56-1.074,0.56-1.695v-9.673C86.267,66.479,85.011,65.224,83.466,65.224z
			 M82.267,76.251c-10.938-0.873-22.207-1.298-34.399-1.298c-12.188,0-23.452,0.423-34.401,1.297v-7.026h68.8V76.251z"/>
	</g>
</g>
<g id="band" display="none">
	<path display="inline" d="M64.259,24.664c-0.004-0.199-0.012-0.396-0.032-0.591c-0.198-2.309-1.288-3.873-2.188-5.147
		c-0.91-1.287-1.629-2.303-1.713-4.076l-0.005-0.086c-0.003-0.161-0.005-0.641-0.005-1.065V12.8c0-1.544-1.256-2.8-2.8-2.8H38.218
		c-1.544,0-2.8,1.256-2.8,2.8l-0.005,1.979c-0.069,1.82-0.797,2.848-1.718,4.15c-0.948,1.338-2.001,2.85-2.19,5.15
		c-0.025,0.237-0.039,0.477-0.039,0.721v46.4h-0.001c0,0.072,0.01,0.137,0.012,0.209c0.005,0.168,0.01,0.338,0.027,0.504
		c0.187,2.307,1.242,3.822,2.191,5.166c0.905,1.281,1.62,2.292,1.712,4.054l0.006,0.104c0.001,0.209,0.003,0.665,0.003,1.064V83.2
		c0,1.543,1.256,2.8,2.8,2.8h19.297c1.543,0,2.799-1.257,2.799-2.8v-0.898c0-0.431,0.002-0.884,0.003-0.978l0.003-0.095
		c0.066-1.824,0.795-2.854,1.719-4.158c0.947-1.338,2.001-2.85,2.189-5.15c0.025-0.237,0.039-0.477,0.039-0.721V24.8l0,0
		C64.267,24.752,64.261,24.71,64.259,24.664z M39.417,14h16.898c0.001,0.363,0.004,0.717,0.008,0.898l0.006,0.143
		c0.055,1.144,0.284,2.113,0.602,2.959H38.801c0.329-0.877,0.564-1.887,0.61-3.091L39.417,14z M56.317,81.245
		c-0.001,0.102-0.002,0.41-0.004,0.755H39.417c-0.001-0.356-0.003-0.702-0.004-0.845l-0.012-0.242
		c-0.059-1.123-0.286-2.078-0.6-2.913h18.13c-0.33,0.88-0.566,1.892-0.611,3.101L56.317,81.245z M57.466,74h-19.2
		c-1.543,0-2.8-1.257-2.8-2.8V24.8c0-1.544,1.256-2.8,2.8-2.8h19.2c1.545,0,2.801,1.256,2.801,2.8v46.4
		C60.267,72.743,59.011,74,57.466,74z"/>
</g>
<g id="bd_x5F_ultra_x5F_hd_x5F_bluray" display="none">
	<g display="inline">
		<path d="M67.251,29.654c0,0,1.451,12.999-28.173,16.506c0,0,35.985,1.738,35.978-16.336c0,0,1.359-13.218-28.672-13.218
			C46.384,16.605,67.251,18.627,67.251,29.654z"/>
		<path d="M37.828,36.057c9.471,0,17.151-2.52,17.151-5.607c0-3.105-7.681-5.608-17.151-5.608c-2.044,0-3.988,0.118-5.804,0.334
			l3.743-6.878H26.43l-5.52,11.207l0.014-0.003c-0.154,0.31-0.257,0.631-0.257,0.949C20.667,33.537,28.349,36.057,37.828,36.057z
			 M37.828,28.103c4.53,0,8.207,0.826,8.207,1.824c0,1.016-3.677,1.825-8.207,1.825c-4.545,0-8.215-0.809-8.215-1.825
			C29.613,28.929,33.283,28.103,37.828,28.103z"/>
		<path d="M83.071,50.618h-70.41c-1.534,0-2.783,1.249-2.783,2.783V76.61c0,1.535,1.249,2.783,2.783,2.783h70.41
			c1.534,0,2.783-1.248,2.783-2.783V53.401C85.854,51.867,84.605,50.618,83.071,50.618z M81.879,75.419H13.853V54.594h68.026V75.419
			z"/>
		<rect x="21.495" y="63.019" width="52.745" height="3.975"/>
	</g>
</g>
<g id="camcorder" display="none">
	<g display="inline">
		<path d="M79.866,30H48.898c-1.175-8.572-8.542-15.199-17.432-15.199c-9.57,0-17.375,7.679-17.59,17.199h-0.01v47.2
			c0,1.104,0.895,2,2,2h31.2c1.105,0,2-0.896,2-2V58.8h30.8c1.105,0,2-0.896,2-2V32C81.866,30.895,80.972,30,79.866,30z
			 M31.466,18.801c7.499,0,13.6,6.101,13.6,13.6c0,7.5-6.101,13.6-13.6,13.6s-13.6-6.101-13.6-13.6
			C17.867,24.902,23.967,18.801,31.466,18.801z M17.867,77.199V43.559c3.23,3.931,8.127,6.442,13.6,6.442s10.37-2.511,13.6-6.442
			v33.641H17.867z M77.866,54.8h-28.8V34h28.8V54.8z"/>
		<circle cx="72.267" cy="40.399" r="2"/>
		<path d="M31.466,41.2c4.853,0,8.8-3.948,8.8-8.8c0-4.853-3.947-8.8-8.8-8.8s-8.8,3.948-8.8,8.8
			C22.667,37.252,26.614,41.2,31.466,41.2z M31.466,26.8c3.088,0,5.6,2.512,5.6,5.6s-2.512,5.6-5.6,5.6s-5.6-2.512-5.6-5.6
			S28.378,26.8,31.466,26.8z"/>
	</g>
</g>
<g id="camera" display="none">
	<g display="inline">
		<path d="M81.466,25.2H65.103l-3.091-6.183c-0.538-1.07-1.749-1.817-2.945-1.817h-22.4c-1.2,0-2.411,0.75-2.946,1.822L30.631,25.2
			H14.266c-1.543,0-2.8,1.257-2.8,2.8v48c0,1.544,1.256,2.8,2.8,2.8h67.2c1.545,0,2.801-1.256,2.801-2.8V28
			C84.267,26.457,83.011,25.2,81.466,25.2z M80.267,74.8h-64.8V29.2h15.6c1.199,0,2.411-0.749,2.947-1.821l3.09-6.179h21.529
			l3.087,6.177c0.535,1.073,1.747,1.823,2.948,1.823h15.6V74.8z"/>
		<path d="M47.867,32.4c-9.926,0-18,8.075-18,18c0,9.926,8.074,18,18,18c9.925,0,18-8.074,18-18
			C65.866,40.475,57.792,32.4,47.867,32.4z M47.867,65.2c-8.161,0-14.8-6.639-14.8-14.801c0-8.161,6.639-14.8,14.8-14.8
			c8.161,0,14.8,6.639,14.8,14.8C62.667,58.562,56.027,65.2,47.867,65.2z"/>
	</g>
</g>
<g id="cooktop" display="none">
	<g display="inline">
		<path d="M28.093,42.57c4.423,0,8.022-3.604,8.022-8.031c0-4.422-3.599-8.02-8.022-8.02c-4.427,0-8.028,3.598-8.028,8.02
			C20.065,38.966,23.667,42.57,28.093,42.57z M28.093,29.719c2.659,0,4.822,2.162,4.822,4.82c0,2.664-2.164,4.831-4.822,4.831
			c-2.662,0-4.828-2.167-4.828-4.831C23.265,31.88,25.431,29.719,28.093,29.719z"/>
		<path d="M28.093,69.485c4.423,0,8.022-3.599,8.022-8.021c0-4.428-3.599-8.03-8.022-8.03c-4.427,0-8.028,3.603-8.028,8.03
			C20.065,65.887,23.667,69.485,28.093,69.485z M28.093,56.634c2.659,0,4.822,2.166,4.822,4.83c0,2.658-2.164,4.821-4.822,4.821
			c-2.662,0-4.828-2.163-4.828-4.821C23.265,58.8,25.431,56.634,28.093,56.634z"/>
		<path d="M67.647,42.57c4.422,0,8.021-3.604,8.021-8.031c0-4.422-3.599-8.02-8.021-8.02c-4.428,0-8.03,3.598-8.03,8.02
			C59.617,38.966,63.22,42.57,67.647,42.57z M67.647,29.719c2.658,0,4.82,2.162,4.82,4.82c0,2.664-2.162,4.831-4.82,4.831
			c-2.664,0-4.83-2.167-4.83-4.831C62.817,31.88,64.983,29.719,67.647,29.719z"/>
		<path d="M47.873,59.949c6.585,0,11.943-5.364,11.943-11.957c0-6.584-5.357-11.941-11.943-11.941
			c-6.592,0-11.954,5.357-11.954,11.941C35.918,54.585,41.281,59.949,47.873,59.949z M47.873,39.25c4.822,0,8.744,3.921,8.744,8.742
			c0,4.829-3.922,8.757-8.744,8.757c-4.827,0-8.754-3.928-8.754-8.757C39.119,43.172,43.045,39.25,47.873,39.25z"/>
		<path d="M67.647,53.434c-4.428,0-8.03,3.603-8.03,8.03c0,4.423,3.603,8.021,8.03,8.021c4.422,0,8.021-3.599,8.021-8.021
			C75.668,57.036,72.069,53.434,67.647,53.434z M67.647,66.285c-2.664,0-4.83-2.163-4.83-4.821c0-2.664,2.166-4.83,4.83-4.83
			c2.658,0,4.82,2.166,4.82,4.83C72.468,64.122,70.306,66.285,67.647,66.285z"/>
		<path d="M80.593,17.888H15.141c-1.659,0-3.009,1.35-3.009,3.01v54.206c0,1.658,1.35,3.008,3.009,3.008h65.452
			c1.658,0,3.008-1.35,3.008-3.008V20.898C83.601,19.238,82.251,17.888,80.593,17.888z M79.601,74.112H16.132V21.888h63.468V74.112z
			"/>
	</g>
</g>
<g id="dishwasher" display="none">
	<g display="inline">
		<path d="M75.066,10.8h-54.4c-1.104,0-2,0.895-2,2v70.4c0,1.104,0.896,2,2,2h54.4c1.104,0,2-0.896,2-2V12.8
			C77.066,11.695,76.171,10.8,75.066,10.8z M73.066,14.8v11.6h-50.4V14.8H73.066z M22.667,81.2V29.6h50.4V81.2H22.667z"/>
		<rect x="42.266" y="19.2" width="11.2" height="3.2"/>
	</g>
</g>
<g id="dryer" display="none">
	<g display="inline">
		<rect x="41.466" y="22.4" width="12.8" height="3.2"/>
		<path d="M75.066,12.4h-54.4c-1.544,0-2.8,1.256-2.8,2.8v65.6c0,1.544,1.256,2.801,2.8,2.801h54.4c1.544,0,2.8-1.257,2.8-2.801
			V15.2C77.866,13.656,76.61,12.4,75.066,12.4z M73.866,79.601h-52V16.4h52V79.601z"/>
		<path d="M47.845,71.562c6.914,0,13.3-3.465,17.083-9.268l-3.352-2.184c-3.041,4.666-8.175,7.451-13.732,7.451
			c-9.032,0-16.38-7.351-16.38-16.385c0-9.03,7.348-16.376,16.38-16.376c5.214,0,10.166,2.519,13.244,6.738l3.23-2.358
			c-3.828-5.248-9.987-8.38-16.474-8.38c-11.237,0-20.38,9.141-20.38,20.376C27.465,62.417,36.608,71.562,47.845,71.562z"/>
		<path d="M58.304,44.887c-2.262-1.4-3.889-1.688-5.635-1.688c-2.302,0-4.311,0.903-5.972,2.684l2.339,2.183
			c1.046-1.122,2.234-1.667,3.633-1.667c1.053,0,2.147,0.092,3.952,1.209c2.272,1.403,3.899,1.691,5.644,1.691
			c2.294,0,4.303-0.904,5.97-2.686l-2.336-2.186c-1.054,1.125-2.241,1.672-3.634,1.672C61.212,46.101,60.117,46.008,58.304,44.887z"
			/>
		<path d="M62.265,53.595c-1.055,0-2.151-0.094-3.959-1.211c-2.258-1.402-3.887-1.689-5.637-1.689c-2.295,0-4.304,0.902-5.971,2.684
			l2.336,2.186c1.052-1.123,2.24-1.67,3.635-1.67c1.055,0,2.151,0.092,3.951,1.211c2.27,1.402,3.898,1.689,5.645,1.689
			c2.301,0,4.31-0.902,5.971-2.682l-2.338-2.184C64.851,53.05,63.663,53.595,62.265,53.595z"/>
	</g>
</g>
<g id="e_x5F_board" display="none">
	<g display="inline">
		<path d="M14.488,24.083h66.399v26.643h4V22.883c0-1.543-1.257-2.8-2.8-2.8H13.288c-1.544,0-2.8,1.257-2.8,2.8v46.399
			c0,1.543,1.256,2.8,2.8,2.8H57.97v-4H14.488V24.083z"/>
		<path d="M85.198,64.573c-0.008-0.034-0.022-0.065-0.03-0.098c-0.03-0.119-0.06-0.237-0.106-0.35
			c-0.12-0.287-0.296-0.551-0.523-0.775l-3.854-3.83L65.478,44.403c-0.552-0.55-1.478-1.015-2.256-1.131l-10.215-1.497
			c-0.823-0.123-1.538,0.168-2.008,0.737c-0.408,0.492-0.568,1.155-0.441,1.813l1.857,9.765c0.144,0.75,0.621,1.648,1.16,2.184
			l2.107,2.093l16.959,16.854c0.226,0.223,0.487,0.396,0.772,0.514c0.001,0,0.001,0,0.001,0c0.288,0.119,0.6,0.182,0.92,0.182l0,0
			h0.001c0.642,0,1.245-0.249,1.696-0.699l8.507-8.469c0.456-0.452,0.706-1.055,0.706-1.698
			C85.245,64.888,85.229,64.729,85.198,64.573z M74.335,72.392L57.231,55.397l7.373-7.347l17.105,17L74.335,72.392z M61.825,46.301
			l-6.418,6.395l-1.436-7.546L61.825,46.301z"/>
	</g>
</g>
<g id="floor_x5F_ac" display="none">
	<g display="inline">
		<path d="M47.863,21.254c-4.214,0-7.643,3.431-7.643,7.648c0,4.215,3.428,7.645,7.643,7.645c4.218,0,7.649-3.43,7.649-7.645
			C55.513,24.687,52.081,21.256,47.863,21.254z M47.863,33.347c-2.45,0-4.443-1.994-4.443-4.445c0-2.453,1.993-4.448,4.442-4.448
			c2.454,0,4.45,1.996,4.45,4.448C52.313,31.353,50.316,33.347,47.863,33.347z"/>
		<path d="M47.868,39.451c-4.217,0-7.647,3.43-7.647,7.645c0,4.217,3.43,7.647,7.647,7.647c4.215,0,7.645-3.431,7.645-7.647
			C55.513,42.881,52.083,39.451,47.868,39.451z M47.868,51.543c-2.452,0-4.447-1.995-4.447-4.447c0-2.451,1.995-4.444,4.447-4.444
			c2.452,0,4.445,1.993,4.445,4.444C52.313,49.548,50.319,51.543,47.868,51.543z"/>
		<path d="M47.868,57.649c-4.217,0-7.647,3.428-7.647,7.643c0,4.217,3.43,7.646,7.647,7.646c4.215,0,7.645-3.43,7.645-7.646
			C55.513,61.077,52.083,57.649,47.868,57.649z M47.868,69.739c-2.452,0-4.447-1.996-4.447-4.447c0-2.449,1.995-4.443,4.447-4.443
			c2.452,0,4.445,1.994,4.445,4.443C52.313,67.743,50.319,69.739,47.868,69.739z"/>
		<path d="M65.46,18.305c0-0.295-0.08-2.93-2.855-4.727c-0.711-0.513-6.293-4.337-14.738-4.101
			c-8.411-0.231-14.026,3.587-14.738,4.101c-2.776,1.799-2.856,4.432-2.856,4.727l-0.007,22.747v42.582l0.055,2.899h33.086
			c0.939,0,2.059-0.485,2.059-2.799V41.051l0,0L65.46,18.305z M61.466,41.051v41.481h-27.2V41.051l0.007-22.747
			c0-0.006,0.096-0.776,1.059-1.389l0.121-0.083c0.049-0.035,4.925-3.566,12.354-3.356l0.06,0.001l0.059-0.001
			c7.433-0.226,12.306,3.32,12.349,3.352l0.127,0.088c0.969,0.615,1.055,1.372,1.059,1.388L61.466,41.051L61.466,41.051z"/>
	</g>
</g>
<g id="headphone_x5F_gear_x5F_iconx" display="none">
	<g display="inline">
		<path d="M59.493,38.939c-2.903-1.432-8.052-1.755-10.434-1.828l-1.2-0.021c-0.806,0-7.981,0.052-11.624,1.849
			c-4.994,2.465-7.975,7.122-7.975,12.456c0,3.425,1.61,7.408,5.066,12.533c2.959,4.391,7.285,9.43,14.536,9.43
			c7.247,0,11.578-5.039,14.542-9.43c3.457-5.131,5.066-9.113,5.066-12.533C67.472,46.063,64.489,41.406,59.493,38.939z
			 M60.417,62.587c-2.796,4.139-6.473,8.371-12.553,8.371c-6.084,0-9.756-4.231-12.546-8.371c-3.177-4.711-4.656-8.268-4.656-11.191
			c0-4.4,2.48-8.252,6.636-10.304c2.568-1.266,8.032-1.601,10.57-1.601c2.532,0,7.997,0.335,10.565,1.601
			c4.157,2.053,6.639,5.905,6.639,10.304C65.071,54.315,63.591,57.872,60.417,62.587z"/>
		<path d="M76.37,49.243c0-15.478-9.045-38.365-28.454-38.443h-0.1l0,0c-19.41,0.078-28.454,22.965-28.454,38.443h0.064
			c-0.036,0.48-0.064,0.965-0.064,1.46c0,5.856,2.935,14.523,7.303,21.567c5.47,8.82,12.206,12.93,21.198,12.93
			c8.993,0,15.733-4.109,21.204-12.93c4.367-7.043,7.303-15.711,7.303-21.567c0-0.495-0.029-0.979-0.064-1.46H76.37z M47.867,14.8
			c11.965,0.028,19.355,10.555,22.589,21.624c-2.092-2.243-4.506-4.03-6.861-5.295c-1.258-0.674-2.74-1.193-4.285-1.593
			c0.096-0.554,0.119-1.099,0.057-1.585c-0.672-5.294-5.709-9.443-11.479-9.464c-0.013,0-0.028,0-0.042,0l0,0
			c-5.772,0.021-10.811,4.17-11.48,9.464c-0.061,0.477-0.04,1.024,0.054,1.588c-1.543,0.4-3.023,0.918-4.28,1.592
			c-2.355,1.264-4.771,3.051-6.859,5.294C28.512,25.355,35.901,14.829,47.867,14.8z M47.86,28.192c-0.635,0-4.321,0.031-8.311,0.691
			c-0.025-0.198-0.029-0.383-0.01-0.53c0.464-3.67,4.197-6.656,8.327-6.667c4.127,0.011,7.86,2.998,8.327,6.669
			c0.02,0.15,0.015,0.333-0.01,0.529c-2.424-0.4-4.736-0.571-6.322-0.642v-0.05H47.86z M65.669,70.161
			C60.934,77.796,55.441,81.2,47.864,81.2c-7.576,0-13.065-3.404-17.799-11.037c-3.946-6.365-6.702-14.366-6.702-19.46
			c0-7.612,5.51-13.281,10.665-16.048c4.541-2.435,13.74-2.463,13.841-2.463c0.093,0,9.294,0.028,13.835,2.462
			c5.156,2.768,10.666,8.437,10.666,16.049C72.37,55.798,69.614,63.8,65.669,70.161z"/>
	</g>
</g>
<g id="headphone_x5F_level_x5F_u" display="none">
	<path display="inline" d="M47.867,14.8c-18.748,0-34,15.325-34,34.164v26.212c0,3.321,3.05,6.024,6.8,6.024
		c3.75,0,6.8-2.703,6.8-6.024V55.052c0-3.321-3.05-6.023-6.8-6.023c-0.998,0-1.946,0.191-2.8,0.535v-0.6
		c0-16.632,13.458-30.164,30-30.164s30,13.531,30,30.164v0.6c-0.854-0.344-1.803-0.535-2.8-0.535c-3.749,0-6.8,2.702-6.8,6.023
		v20.124c0,3.321,3.051,6.024,6.8,6.024s6.8-2.703,6.8-6.024V48.964C81.866,30.125,66.614,14.8,47.867,14.8z M20.667,53.028
		c1.518,0,2.8,0.928,2.8,2.023v20.124c0,1.097-1.282,2.024-2.8,2.024s-2.8-0.928-2.8-2.024V55.052
		C17.867,53.956,19.149,53.028,20.667,53.028z M77.866,75.176c0,1.097-1.281,2.024-2.8,2.024s-2.8-0.928-2.8-2.024V55.052
		c0-1.096,1.281-2.023,2.8-2.023s2.8,0.928,2.8,2.023V75.176z"/>
</g>
<g id="headphone_x5F_mono" display="none">
	<g display="inline">
		<path d="M80.858,61.093L63.874,44.107c0.516-2.067,0.778-4.197,0.778-6.36c0-14.453-11.757-26.211-26.208-26.211
			c-12.282,0-22.613,8.493-25.441,19.914c-2.25,7.245-2.592,16.361-1.621,26.972c0.002,0.029,0.003,0.064,0.007,0.092
			c0.059,0.72,0.146,1.373,0.263,1.957c0.036,0.256,0.204,1.099,0.304,1.227c1.003,3.199,3.338,3.169,4.894-1.467
			c2.758-8.236-0.342-8.497-0.683-19.982c-0.024-0.813-0.018-1.652,0.017-2.502h0.051c0-12.248,9.964-22.211,22.211-22.211
			c12.247,0,22.208,9.963,22.208,22.211c0,0.987-0.081,1.963-0.208,2.93L48.451,28.684c-2.586-2.585-6.023-4.009-9.68-4.009
			s-7.095,1.424-9.681,4.01c-5.336,5.338-5.336,14.024,0,19.36l32.409,32.408c2.586,2.586,6.023,4.011,9.681,4.011
			s7.095-1.425,9.681-4.011C86.198,75.114,86.196,66.429,80.858,61.093z M78.032,77.625c-1.83,1.831-4.264,2.839-6.853,2.839
			s-5.022-1.008-6.853-2.839L31.918,45.217c-3.777-3.778-3.777-9.926,0-13.704c1.831-1.83,4.264-2.838,6.853-2.838
			c2.588,0,5.021,1.008,6.852,2.838L78.03,63.922C81.81,67.698,81.81,73.847,78.032,77.625z"/>
		<path d="M38.771,32.869c-3.031,0-5.497,2.465-5.497,5.497c0,3.031,2.466,5.497,5.497,5.497s5.497-2.466,5.497-5.497
			C44.268,35.334,41.802,32.869,38.771,32.869z M38.771,40.662c-1.266,0-2.297-1.031-2.297-2.297s1.031-2.297,2.297-2.297
			s2.297,1.031,2.297,2.297S40.038,40.662,38.771,40.662z"/>
	</g>
</g>
<g id="hood" display="none">
	<g display="inline">
		<rect x="41.466" y="68.8" width="12.799" height="3.2"/>
		<path d="M85.028,60.772L61.192,43.77V17.6c0-1.104-0.896-2-2-2H36.541c-1.104,0-2,0.896-2,2v26.17L10.705,60.772
			c-0.526,0.375-0.838,0.981-0.838,1.627v16c0,1.105,0.895,2,2,2h72c1.105,0,2-0.895,2-2v-16
			C85.866,61.754,85.554,61.147,85.028,60.772z M57.192,19.6v23.6H38.541V19.6H57.192z M37.702,46.428
			c0.012-0.008,0.02-0.02,0.031-0.028H58c0.011,0.008,0.019,0.02,0.03,0.028L78.18,60.8H17.553L37.702,46.428z M13.867,76.399V64h68
			v12.399H13.867z"/>
	</g>
</g>
<g id="iot" display="none">
	<g display="inline">
		<path d="M64.72,20.303L32.766,13.59c-1.229-0.258-2.467-0.39-3.681-0.39c-8.818,0-15.218,6.515-15.218,15.49v36.022
			c0,9.975,8.223,18.088,18.332,18.088h31.333c10.109,0,18.334-8.113,18.334-18.088V41.196
			C81.866,31.662,74.175,22.289,64.72,20.303z M77.866,64.712c0,7.769-6.43,14.088-14.334,14.088H32.199
			c-7.902,0-14.332-6.319-14.332-14.088V28.689c0-6.765,4.613-11.49,11.218-11.49c0.938,0,1.897,0.103,2.856,0.305l31.957,6.713
			c7.702,1.619,13.968,9.235,13.968,16.979V64.712z"/>
		<path d="M62.013,29.421l-26.87-5.576c-0.741-0.154-1.491-0.232-2.231-0.232c-5.428,0-9.521,4.152-9.521,9.658v19.204
			c0,6.102,5.027,11.066,11.207,11.066h26.539c6.18,0,11.208-4.965,11.208-11.066V41.986C72.344,36.143,67.806,30.623,62.013,29.421
			z M68.344,52.476c0,3.896-3.233,7.066-7.208,7.066H34.597c-3.974,0-7.207-3.17-7.207-7.066V33.271
			c0-3.278,2.322-5.658,5.521-5.658c0.467,0,0.944,0.05,1.418,0.148L61.2,33.337c3.871,0.804,7.144,4.764,7.144,8.649V52.476z"/>
	</g>
</g>
<g id="iot_x5F_connect_x5F_auto" display="none">
	<g display="inline">
		<path fill="#141113" d="M71.468,30.611V15.381c0-1.644-1.339-2.981-2.983-2.981H27.248c-1.644,0-2.982,1.338-2.982,2.981V30.61
			c-2.354,1.07-4,3.439-4,6.19V72c0,6.396,5.204,11.601,11.601,11.601h32.8c6.156,0,10.799-4.987,10.799-11.601V36.8
			C75.466,34.049,73.821,31.681,71.468,30.611z M67.468,16.4V30h-6.801v-6.8h-3.201V30h-8v-6.8h-3.2V30h-8v-6.8h-3.2V30h-6.8V16.4
			H67.468z M71.466,72c0,3.776-2.336,7.601-6.799,7.601h-32.8c-4.191,0-7.601-3.41-7.601-7.601V36.8c0-1.544,1.257-2.8,2.8-2.8
			h41.601c1.543,0,2.799,1.256,2.799,2.8V72z"/>
	</g>
</g>
<g id="kimchi_x5F_ref" display="none">
	<g display="inline">
		<path fill="#231F20" d="M68.726,10.4H27.007c-1.512,0-2.741,1.229-2.741,2.741v69.72c0,1.511,1.229,2.74,2.741,2.74h41.718
			c1.512,0,2.74-1.229,2.74-2.74v-69.72C71.466,11.629,70.237,10.4,68.726,10.4z M67.466,14.4v31.2h-39.2V14.4H67.466z
			 M67.466,49.601v14h-39.2v-14H67.466z M28.266,81.601v-14h39.2v14H28.266z"/>
		<rect x="34.266" y="20.4" fill="#231F20" width="3.2" height="16"/>
	</g>
</g>
<g id="microwave_x5F_oven" display="none">
	<g display="inline">
		<path d="M82.062,21.2H12.07c-1.657,0-3.004,1.349-3.004,3.005v47.591c0,1.656,1.348,3.004,3.004,3.004h69.991
			c1.656,0,3.004-1.348,3.004-3.004V24.205C85.065,22.548,83.718,21.2,82.062,21.2z M81.065,70.8h-68V25.2h68V70.8z"/>
		<path d="M65.466,29.6h-46.4v36.8h46.4V29.6z M62.266,63.2h-40V32.8h40V63.2z"/>
		<rect x="71.866" y="30.4" width="3.199" height="35.201"/>
	</g>
</g>
<g id="monitor" display="none">
	<g display="inline">
		<path d="M81.262,18H14.471c-1.657,0-3.005,1.348-3.005,3.005v41.19c0,1.656,1.348,3.005,3.005,3.005h31.396V74h-14.4v4h32.8v-4
			h-14.4v-8.8h31.396c1.657,0,3.005-1.349,3.005-3.005v-41.19C84.267,19.348,82.919,18,81.262,18z M80.267,61.2h-64.8V22h64.8V61.2z
			"/>
	</g>
</g>
<g id="oven" display="none">
	<g display="inline">
		<path d="M79.066,14h-62.4c-1.544,0-2.8,1.256-2.8,2.8v62.4c0,1.543,1.256,2.8,2.8,2.8h62.4c1.544,0,2.8-1.257,2.8-2.8V16.8
			C81.866,15.256,80.61,14,79.066,14z M77.866,18v11.6h-60V18H77.866z M17.867,78V32.8h60V78H17.867z"/>
		<rect x="41.466" y="22.4" width="12.8" height="3.2"/>
		<path d="M24.4,72h47.201V39.2H24.4V72z M27.6,42.4h40.799v26.4H27.6V42.4z"/>
	</g>
</g>
<g id="pc_x5F_samsung_x5F_desktop_x5F_7" display="none">
	<g display="inline">
		<path d="M81.454,16.8H60.677c-1.99,0-3.61,1.62-3.61,3.611V24H14.282c-1.993,0-3.616,1.622-3.616,3.616v38.368
			c0,1.994,1.623,3.615,3.616,3.615h24.384v4.801h-9.6v4h23.201v-4h-9.601v-4.801h14.4v5.99c0,1.99,1.62,3.611,3.61,3.611h20.777
			c1.992,0,3.612-1.621,3.612-3.611V20.412C85.066,18.42,83.446,16.8,81.454,16.8z M14.666,28h52.001v37.599H14.666V28z
			 M81.066,75.2h-20v-5.602h5.983c1.993,0,3.615-1.621,3.617-3.615V27.615c0-1.994-1.623-3.616-3.617-3.616h-5.983V20.8h20V75.2z"/>
	</g>
</g>
<g id="pc_x5F_samsung_x5F_notebook_x5F_9_x5F_lite" display="none">
	<g display="inline">
		<path d="M17.668,68.399h60.395c1.656,0,3.003-1.346,3.003-3.001V24.203c0-1.656-1.347-3.003-3.003-3.003H17.668
			c-1.655,0-3.002,1.347-3.002,3.003v41.196C14.667,67.054,16.013,68.399,17.668,68.399z M18.667,25.2h58.4v39.2h-58.4V25.2z"/>
		<rect x="11.066" y="70.8" width="73.601" height="4"/>
	</g>
</g>
<g id="phone_x5F_galaxy_x5F_s8" display="none">
	<g display="inline">
		<path d="M63.941,10H31.791c-3.707,0-6.724,3.017-6.724,6.725v62.552c0,3.708,3.017,6.724,6.724,6.724h32.151
			c3.708,0,6.726-3.016,6.726-6.724V16.725C70.667,13.017,67.649,10,63.941,10z M66.667,79.276c0,1.502-1.223,2.724-2.726,2.724
			H31.791c-1.501,0-2.724-1.222-2.724-2.724V16.725c0-1.502,1.223-2.725,2.724-2.725h32.151c1.503,0,2.726,1.223,2.726,2.725V79.276
			z"/>
		<path d="M52.961,72.399H42.773c-1.105,0-2,0.896-2,2c0,1.105,0.895,2,2,2h10.188c1.104,0,2-0.895,2-2
			C54.961,73.296,54.065,72.399,52.961,72.399z"/>
	</g>
</g>
<g id="printer_x5F_m457x_x5F_series" display="none">
	<g display="inline">
		<rect x="35.417" y="36.549" width="24.891" height="3.2"/>
		<rect x="35.417" y="44.641" width="24.891" height="3.2"/>
		<path d="M79.066,53.313h-7.872l0.004-22.22c0-0.976-0.465-2.093-1.154-2.781l-13.1-13.088c-0.689-0.688-1.807-1.15-2.779-1.15
			H27.32c-1.544,0-2.8,1.257-2.8,2.8v36.438h-7.854c-1.544,0-2.8,1.256-2.8,2.8v23.012c0,1.544,1.256,2.8,2.8,2.8h62.4
			c1.544,0,2.8-1.256,2.8-2.8V56.113C81.866,54.569,80.61,53.313,79.066,53.313z M64.765,28.691h-8.198v-8.189L64.765,28.691z
			 M28.52,18.075h24.846V29.49c0,1.324,1.076,2.4,2.4,2.4h11.432l-0.004,21.423H28.52V18.075z M62.263,77.925H33.471v-3.504h28.792
			V77.925z M77.866,77.925H65.462v-4.304c0-1.323-1.076-2.399-2.399-2.399H32.671c-1.324,0-2.4,1.076-2.4,2.399v4.304H17.867V57.313
			h60V77.925z"/>
	</g>
</g>
<g id="range" display="none">
	<g display="inline">
		<path d="M68.667,32.8H27.066v33.599h41.601V32.8z M65.466,63.2h-35.2V36h35.2V63.2z"/>
		<path d="M30.266,25.6c1.767,0,3.201-1.43,3.201-3.2c0-1.771-1.434-3.2-3.201-3.2s-3.199,1.429-3.199,3.2
			C27.066,24.17,28.499,25.6,30.266,25.6z"/>
		<circle cx="39.866" cy="22.4" r="3.2"/>
		<path d="M55.866,25.6c1.767,0,3.2-1.43,3.2-3.2c0-1.771-1.434-3.2-3.2-3.2c-1.768,0-3.199,1.429-3.199,3.2
			C52.667,24.17,54.099,25.6,55.866,25.6z"/>
		<circle cx="65.466" cy="22.4" r="3.2"/>
		<path d="M75.066,10.8h-54.4c-1.104,0-2,0.895-2,2v70.4c0,1.104,0.896,2,2,2h54.4c1.104,0,2-0.896,2-2V12.8
			C77.066,11.695,76.171,10.8,75.066,10.8z M73.066,14.8v55.599h-50.4V14.8H73.066z M22.667,81.2v-7.6h50.4v7.6H22.667z"/>
	</g>
</g>
<g id="refrigerator" display="none">
	<g display="inline">
		<rect x="54.3" y="25.979" width="3.2" height="17.021"/>
		<path d="M41.5,25.539H30.3v17.122h11.2V25.539z M38.3,39.461h-4.8V28.739h4.8V39.461z"/>
		<path d="M71.833,11.586H23.9c-1.544,0-2.8,1.256-2.8,2.8v67.228c0,1.543,1.256,2.8,2.8,2.8h47.933c1.543,0,2.8-1.257,2.8-2.8
			V14.386C74.633,12.842,73.376,11.586,71.833,11.586z M70.633,53.938H49.899V15.586h20.733V53.938z M45.9,15.586v38.353H25.1
			V15.586H45.9z M25.1,80.414V57.938h45.533v22.476H25.1z"/>
	</g>
</g>
<g id="robot_x5F_vacuum" display="none">
	<g display="inline">
		<path d="M70.667,13.953H25.066c-5.955,0-10.8,4.845-10.8,10.799v23.695c0,18.528,15.073,33.601,33.601,33.601
			c18.527,0,33.599-15.072,33.599-33.601V24.752C81.466,18.797,76.622,13.953,70.667,13.953z M25.066,17.953h45.601
			c3.748,0,6.799,3.051,6.799,6.799v11.361h-21.6V25.041c0-1.291-1.05-2.342-2.342-2.342H42.209c-1.292,0-2.343,1.051-2.343,2.342
			v11.072H18.266V24.752C18.266,21.003,21.317,17.953,25.066,17.953z M25.525,39.313h14.502c0.743,3.648,3.976,6.4,7.839,6.4
			c3.863,0,7.095-2.752,7.839-6.4h3.664v15.066H28.725c-1.764,0-3.2-1.435-3.2-3.2V39.313z M43.066,37.713V25.899h9.601v11.814
			c0,2.647-2.154,4.8-4.8,4.8C45.219,42.513,43.066,40.36,43.066,37.713z M61.77,39.313h8.437v11.866c0,1.766-1.436,3.2-3.199,3.2
			H61.77V39.313z M47.867,78.048c-16.321,0-29.601-13.278-29.601-29.601v-9.134h4.06v11.866c0,3.529,2.871,6.4,6.399,6.4h38.282
			c3.528,0,6.399-2.871,6.399-6.4V39.313h4.06v9.134C77.466,64.77,64.188,78.048,47.867,78.048z"/>
		<path d="M49.866,31.961c0-1.102-0.897-2-1.999-2c-1.105,0-2.001,0.898-2.001,2c0,1.102,0.896,2,2.001,2
			C48.969,33.961,49.866,33.063,49.866,31.961z"/>
	</g>
</g>
<g id="room_x5F_ac" display="none">
	<path display="inline" d="M73.466,31.6h-51.2c-5.514,0-10,4.425-10,9.863v22.936h71.2V41.463C83.466,36.025,78.98,31.6,73.466,31.6
		z M70.503,60.399H25.229v-5.6h45.274V60.399z M79.466,60.399h-4.963v-6.799c0-1.545-1.257-2.801-2.801-2.801H24.029
		c-1.544,0-2.8,1.256-2.8,2.801v6.799h-4.963V41.463c0-3.233,2.691-5.863,6-5.863h51.2c3.309,0,6,2.63,6,5.863V60.399z"/>
</g>
<g id="signage_x5F_samsung_x5F_qmd" display="none">
	<path display="inline" d="M82.062,22h-68.39c-1.657,0-3.005,1.348-3.005,3.005v45.99c0,1.657,1.348,3.005,3.005,3.005h68.39
		c1.657,0,3.005-1.348,3.005-3.005V25.004C85.066,23.348,83.719,22,82.062,22z M81.066,70h-66.4V26h66.4V70z"/>
</g>
<g id="smart_x5F_home_x5F_sleepsense" display="none">
	<g display="inline">
		<path d="M47.949,12.447h-0.207c-16.473,0.064-29.875,13.521-29.875,29.998c0,10.035,6.643,18.632,8.679,21.028l0.25,0.293
			c0.068,0.076,1.599,1.733,3.403,3.684l12.942,14.006c1.25,1.352,2.928,2.096,4.727,2.096c1.798,0,3.477-0.744,4.727-2.096
			L65.538,67.45c1.787-1.938,3.294-3.564,3.344-3.619l0.209-0.242c1.465-1.705,8.775-10.73,8.775-21.143
			C77.866,25.947,64.445,12.49,47.949,12.447z M66.05,60.989l-0.131,0.154c-0.228,0.246-1.65,1.785-3.32,3.592L49.656,78.741
			c-0.968,1.047-2.611,1.045-3.578,0L33.136,64.735c-1.76-1.902-3.257-3.521-3.328-3.599l-0.215-0.254
			c-1.291-1.519-7.727-9.543-7.727-18.438c0-14.28,11.614-25.942,25.921-25.998h0.151c14.296,0.037,25.927,11.699,25.927,25.999
			C73.866,51.445,67.362,59.464,66.05,60.989z"/>
		<rect x="43.466" y="67.435" width="2.4" height="2.4"/>
		<rect x="49.866" y="67.435" width="2.4" height="2.4"/>
	</g>
</g>
<g id="speaker" display="none">
	<g display="inline">
		<path d="M53.667,43.621h24c1.543,0,2.799-1.257,2.799-2.8v-24c0-1.543-1.256-2.8-2.799-2.8h-24c-1.545,0-2.801,1.257-2.801,2.8v24
			C50.866,42.364,52.122,43.621,53.667,43.621z M54.866,18.02h21.6v21.601h-21.6V18.02z"/>
		<path d="M40.867,50.819h-24c-1.544,0-2.8,1.256-2.8,2.801v24c0,1.543,1.256,2.799,2.8,2.799h24c1.543,0,2.8-1.256,2.8-2.799v-24
			C43.667,52.075,42.41,50.819,40.867,50.819z M39.667,76.419h-21.6v-21.6h21.6V76.419z"/>
		<path d="M28.865,12.779c-9.042,0-16.398,7.391-16.398,16.477V41.05c0,2.103,1.866,3.813,4.159,3.813
			c2.295,0,4.162-1.711,4.162-3.813v-9.057c0.001-2.137-1.932-3.865-4.276-3.811c0.543-6.38,5.875-11.404,12.353-11.404
			c6.479,0,11.813,5.024,12.356,11.404c-2.316-0.065-4.277,1.672-4.277,3.811v9.057c0,2.103,1.867,3.813,4.161,3.813
			c2.295,0,4.161-1.711,4.161-3.813V29.256C45.266,20.17,37.909,12.779,28.865,12.779z"/>
		<path d="M65.667,48.021c-9.705,0-17.601,7.892-17.601,17.592c0,9.708,7.896,17.608,17.601,17.608c9.704,0,17.6-7.9,17.6-17.608
			C83.267,55.913,75.371,48.021,65.667,48.021z M65.667,79.222c-7.5,0-13.601-6.105-13.601-13.608
			c0-7.495,6.101-13.593,13.601-13.593c7.498,0,13.6,6.098,13.6,13.593C79.267,73.116,73.165,79.222,65.667,79.222z"/>
		<path d="M65.667,56.012c-5.301,0-9.612,4.31-9.612,9.606c0,5.301,4.312,9.613,9.612,9.613c5.299,0,9.611-4.313,9.611-9.613
			C75.278,60.321,70.966,56.012,65.667,56.012z M65.667,72.032c-3.535,0-6.412-2.877-6.412-6.414c0-3.532,2.877-6.406,6.412-6.406
			s6.411,2.874,6.411,6.406C72.078,69.155,69.202,72.032,65.667,72.032z"/>
	</g>
</g>
<g id="speaker_x5F_level_x5F_box" display="none">
	<g display="inline">
		<path d="M70.267,13.2h-44.8c-1.544,0-2.8,1.257-2.8,2.8v64c0,1.544,1.256,2.8,2.8,2.8h44.8c1.543,0,2.8-1.256,2.8-2.8V16
			C73.066,14.457,71.81,13.2,70.267,13.2z M69.066,78.8h-42.4V17.2h42.4V78.8z"/>
		<path d="M47.867,74.8c8.602,0,15.601-6.998,15.601-15.6S56.469,43.6,47.867,43.6s-15.6,6.999-15.6,15.601S39.266,74.8,47.867,74.8
			z M47.867,47.6c6.396,0,11.601,5.204,11.601,11.601s-5.205,11.6-11.601,11.6c-6.396,0-11.6-5.203-11.6-11.6
			S41.471,47.6,47.867,47.6z"/>
		<path d="M47.867,66.399c3.97,0,7.2-3.229,7.2-7.199s-3.23-7.2-7.2-7.2c-3.97,0-7.2,3.229-7.2,7.2S43.897,66.399,47.867,66.399z
			 M47.867,55.2c2.206,0,4,1.795,4,4s-1.794,4-4,4c-2.206,0-4-1.795-4-4S45.662,55.2,47.867,55.2z"/>
		<path d="M47.867,38c4.191,0,7.599-3.41,7.599-7.6c0-4.191-3.408-7.6-7.599-7.6s-7.601,3.409-7.601,7.6
			C40.266,34.59,43.676,38,47.867,38z M47.867,26.8c1.985,0,3.599,1.614,3.599,3.6c0,1.985-1.614,3.6-3.599,3.6
			c-1.985,0-3.601-1.615-3.601-3.6C44.266,28.415,45.881,26.8,47.867,26.8z"/>
	</g>
</g>
<g id="system_x5F_ac" display="none">
	<g display="inline">
		<path d="M79.066,14h-62.4c-1.544,0-2.8,1.256-2.8,2.8v62.4c0,1.543,1.256,2.8,2.8,2.8h62.4c1.544,0,2.8-1.257,2.8-2.8V16.8
			C81.866,15.256,80.61,14,79.066,14z M77.866,78h-60V18h60V78z"/>
		<rect x="69.466" y="32.4" width="3.201" height="31.201"/>
		<rect x="23.066" y="32.4" width="3.2" height="31.201"/>
		<path d="M63.066,63.2V32.8h-30.4v30.4H63.066z M35.867,36h24v24h-24V36z"/>
		<rect x="32.266" y="23.2" width="31.2" height="3.2"/>
		<rect x="32.266" y="69.601" width="31.2" height="3.199"/>
	</g>
</g>
<g id="tablet_x5F_tab_x5F_s3" display="none">
	<g display="inline">
		<path d="M54.267,62h-12.8c-1.104,0-2,0.896-2,2s0.896,2,2,2h12.8c1.104,0,2-0.896,2-2S55.371,62,54.267,62z"/>
		<path d="M79.859,21.2H15.874c-2.871,0-5.207,2.337-5.207,5.208v43.185c0,2.871,2.336,5.207,5.207,5.207h63.986
			c2.871,0,5.207-2.336,5.207-5.207V26.408C85.066,23.537,82.73,21.2,79.859,21.2z M81.066,69.593c0,0.654-0.554,1.207-1.207,1.207
			H15.874c-0.654,0-1.207-0.553-1.207-1.207V26.408c0-0.654,0.553-1.208,1.207-1.208h63.986c0.653,0,1.207,0.554,1.207,1.208V69.593
			z"/>
	</g>
</g>
<g id="tag" display="none">
	<g display="inline">
		<path d="M73.946,21.921C68.69,16.666,60.935,14,50.897,14h-6.053c-20.266,0-30.978,10.709-30.978,30.969v6.055
			c0,10.038,2.666,17.793,7.924,23.053c5.258,5.258,13.014,7.924,23.053,7.923h6.053c10.037,0,17.793-2.667,23.049-7.925
			s7.92-13.013,7.92-23.051v-6.055C81.866,34.932,79.202,27.178,73.946,21.921z M77.866,51.024c0,8.939-2.27,15.744-6.75,20.223
			C66.638,75.728,59.835,78,50.897,78h-6.053c-8.939,0-15.744-2.271-20.225-6.753c-4.48-4.48-6.752-11.283-6.752-20.223v-6.055
			C17.867,27.074,26.943,18,44.844,18h6.053c8.938,0,15.74,2.271,20.221,6.75c4.479,4.479,6.748,11.281,6.748,20.219V51.024z"/>
		<path d="M47.867,35.92c-4.226,0-7.663,3.438-7.663,7.664c0,4.226,3.438,7.663,7.663,7.663c4.226,0,7.664-3.437,7.664-7.663
			C55.53,39.359,52.093,35.92,47.867,35.92z M47.867,48.047c-2.461,0-4.463-2.002-4.463-4.463s2.002-4.463,4.463-4.463
			c2.46,0,4.464,2.002,4.464,4.463S50.327,48.047,47.867,48.047z"/>
		<path d="M47.867,27.9c-9.043,0-16.4,7.322-16.4,16.323c0,3.76,1.316,7.431,3.721,10.354c0.016,0.018,0.056,0.066,10.834,12.666
			c0.461,0.542,1.133,0.854,1.845,0.854c0.71,0,1.38-0.311,1.841-0.85L60.56,54.56c2.391-2.906,3.707-6.577,3.707-10.337
			C64.267,35.222,56.91,27.9,47.867,27.9z M57.503,51.981l-9.635,11.266c-2.783-3.252-9.458-11.056-9.604-11.229
			c-1.804-2.193-2.796-4.96-2.796-7.796c0-6.795,5.563-12.323,12.4-12.323s12.4,5.528,12.4,12.323
			C60.267,47.059,59.274,49.827,57.503,51.981z"/>
	</g>
</g>
<g id="tag_x5F_connect_x5F_tag" display="none">
	<g display="inline">
		<path d="M74.022,26.098l-4.281-4.28c-7.098-7.099-14.467-10.698-21.9-10.698c-7.433,0-14.801,3.598-21.898,10.696l-4.282,4.281
			C14.563,33.197,10.963,40.564,10.963,48c-0.001,7.435,3.597,14.804,10.694,21.9l4.281,4.281
			c7.098,7.1,14.468,10.699,21.903,10.699c7.436,0,14.804-3.6,21.902-10.697l4.283-4.281C88.353,55.574,88.351,40.428,74.022,26.098
			z M71.198,67.071l-4.283,4.281c-6.32,6.322-12.738,9.527-19.074,9.527c-6.337,0-12.754-3.205-19.074-9.527l-4.282-4.281
			c-6.319-6.32-9.523-12.736-9.522-19.071c0-6.335,3.207-12.752,9.527-19.073l4.282-4.282c6.321-6.32,12.736-9.524,19.07-9.524
			c6.334,0,12.75,3.205,19.072,9.526l4.281,4.28C83.851,41.584,83.852,54.418,71.198,67.071z"/>
		<path d="M46.386,25.525c-1.34,1.34-1.344,3.524,0.001,4.87c1.339,1.339,3.527,1.337,4.868-0.001
			c1.342-1.345,1.34-3.527,0.002-4.867C49.909,24.181,47.728,24.182,46.386,25.525z"/>
	</g>
</g>
<g id="tv_x5F_samsung_x5F_series_x5F_9" display="none">
	<g display="inline">
		<path d="M81.262,18.424H14.471c-1.657,0-3.005,1.348-3.005,3.005v41.189c0,1.658,1.348,3.006,3.005,3.006h31.396v3.199h-1.42
			l-21.814,4.848l0.868,3.904l21.386-4.752h0.98v0.02h4v-0.02h0.98l21.387,4.752l0.867-3.904l-21.814-4.848h-1.42v-3.199h31.396
			c1.657,0,3.005-1.348,3.005-3.006V21.429C84.267,19.772,82.919,18.424,81.262,18.424z M80.267,61.624h-64.8v-39.2h64.8V61.624z"/>
	</g>
</g>
<g id="washer" display="none">
	<g display="inline">
		<rect x="41.466" y="22.4" width="12.8" height="3.2"/>
		<path d="M74.862,12.4H20.871c-1.657,0-3.004,1.348-3.004,3.006v65.189c0,1.658,1.348,3.006,3.004,3.006h53.991
			c1.656,0,3.004-1.348,3.004-3.006v-65.19C77.866,13.748,76.519,12.4,74.862,12.4z M73.866,79.601h-52V16.4h52V79.601z"/>
		<path d="M47.867,71.601c11.248,0,20.4-9.152,20.4-20.4c0-11.249-9.152-20.4-20.4-20.4c-11.249,0-20.4,9.151-20.4,20.4
			C27.466,62.448,36.618,71.601,47.867,71.601z M47.867,34.8c9.042,0,16.4,7.356,16.4,16.4c0,9.043-7.357,16.4-16.4,16.4
			c-9.043,0-16.4-7.357-16.4-16.4C31.466,42.157,38.824,34.8,47.867,34.8z"/>
	</g>
</g>
<g id="watch" display="none">
	<path display="inline" d="M77.866,48c0-6.27-1.936-12.093-5.236-16.912l0.012-0.008c-0.625-0.936-1.212-1.719-1.73-2.41
		c-1.576-2.103-2.446-3.262-2.588-6.231l-0.006-0.1c0-0.195-0.002-0.642-0.002-1.041V12.8c0-1.544-1.256-2.8-2.8-2.8H30.23
		c-1.544,0-2.8,1.256-2.8,2.8v8.498c0,0.401-0.001,0.85-0.002,1.043l-0.006,0.109c-0.142,2.958-1.011,4.117-2.588,6.221
		c-0.518,0.69-1.104,1.472-1.73,2.408l0.004,0.002c-3.303,4.82-5.241,10.646-5.241,16.917c0,6.272,1.938,12.098,5.241,16.917
		l-0.004,0.004c0.625,0.934,1.211,1.716,1.729,2.406c1.579,2.105,2.448,3.264,2.59,6.23l0.005,0.102
		c0.001,0.193,0.003,0.641,0.003,1.043V83.2c0,1.543,1.257,2.8,2.8,2.8h35.285c1.544,0,2.8-1.257,2.8-2.8v-8.498
		c0-0.4,0.002-0.846,0.002-1.041l0.007-0.109c0.141-2.959,1.011-4.119,2.589-6.225c0.518-0.689,1.104-1.471,1.729-2.406
		l-0.013-0.008C75.931,60.094,77.866,54.27,77.866,48z M31.426,22.42c0.002-0.17,0.003-0.674,0.003-1.122V14h32.886v7.298
		c0,0.447,0.002,0.952,0.004,1.122l0.01,0.221c0.006,0.107,0.015,0.207,0.021,0.311C59.616,19.826,53.952,18,47.867,18
		c-6.08,0-11.739,1.823-16.471,4.943c0.006-0.099,0.016-0.193,0.021-0.295L31.426,22.42z M47.867,22c14.336,0,26,11.664,26,26
		c0,14.337-11.663,26-26,26c-14.337,0-26-11.663-26-26C21.867,33.664,33.53,22,47.867,22z M64.319,73.581
		c-0.002,0.17-0.004,0.673-0.004,1.121V82H31.43v-7.298c0-0.449-0.002-0.952-0.004-1.123l-0.009-0.22
		c-0.006-0.104-0.015-0.202-0.021-0.304C36.127,76.177,41.787,78,47.867,78c6.085,0,11.75-1.825,16.484-4.952
		c-0.007,0.101-0.016,0.195-0.021,0.299L64.319,73.581z"/>
</g>
<g id="wifi_x5F_hub_x5F_connect_x5F_home" display="none">
	<g display="inline">
		<path d="M51.024,14h-6.056C24.709,14,14,24.709,14,44.969v6.054C14,71.288,24.709,82,44.969,82h6.056
			C71.289,82,82,71.288,82,51.022v-6.054C82,24.709,71.289,14,51.024,14z M78,51.022C78,68.923,68.925,78,51.024,78h-6.056
			C27.074,78,18,68.923,18,51.022v-6.054C18,27.074,27.074,18,44.969,18h6.056C68.925,18,78,27.074,78,44.969V51.022z"/>
		<rect x="56" y="46" width="14.399" height="4"/>
	</g>
</g>
</svg>
