<?xml version="1.0" encoding="utf-8"?>
<!-- Generator: Adobe Illustrator 16.0.0, SVG Export Plug-In . SVG Version: 6.00 Build 0)  -->
<!DOCTYPE svg PUBLIC "-//W3C//DTD SVG 1.1//EN" "http://www.w3.org/Graphics/SVG/1.1/DTD/svg11.dtd">
<svg version="1.1" id="Layer_1" xmlns="http://www.w3.org/2000/svg" xmlns:xlink="http://www.w3.org/1999/xlink" x="0px" y="0px"
	 width="128px" height="128px" viewBox="0 0 128 128" enable-background="new 0 0 128 128" xml:space="preserve">
<g>
	<path d="M43.433,67.464c0-1.228-0.292-2.201-0.875-2.919c-0.583-0.721-1.519-1.263-2.805-1.625l-1.862-0.523
		c-0.697-0.197-1.2-0.466-1.511-0.807c-0.31-0.341-0.465-0.798-0.465-1.373c0-1.273,0.75-1.909,2.249-1.909
		c1.045,0,2.362,0.295,3.952,0.886l0.932-2.34c-0.757-0.363-1.556-0.643-2.397-0.839c-0.84-0.198-1.655-0.295-2.442-0.295
		c-1.65,0-2.93,0.438-3.838,1.316c-0.908,0.88-1.363,2.121-1.363,3.725c0,1.228,0.291,2.197,0.874,2.908
		c0.583,0.712,1.518,1.25,2.805,1.612l1.863,0.524c0.696,0.196,1.199,0.465,1.511,0.806c0.31,0.343,0.465,0.799,0.465,1.376
		c0,1.391-0.863,2.087-2.59,2.087c-1.362,0-2.764-0.415-4.202-1.247l-0.932,2.339c0.681,0.486,1.469,0.856,2.362,1.113
		c0.893,0.257,1.816,0.387,2.771,0.387c1.756,0,3.112-0.454,4.066-1.363C42.957,70.394,43.433,69.112,43.433,67.464z"/>
	<path d="M45.84,55.97v16.442h3.044v-5.223h2.59c1.679,0,2.989-0.496,3.928-1.488c0.939-0.991,1.41-2.373,1.41-4.144
		c0-1.756-0.459-3.126-1.375-4.11c-0.917-0.985-2.192-1.477-3.827-1.477H45.84z M53.12,59.41c0.372,0.508,0.558,1.253,0.558,2.237
		c0,0.94-0.176,1.651-0.523,2.136c-0.348,0.483-0.862,0.727-1.544,0.726h-2.726v-5.86h2.59C52.2,58.649,52.748,58.903,53.12,59.41z"
		/>
	<polygon points="68.28,58.65 68.28,55.97 58.537,55.97 58.537,72.412 68.621,72.412 68.621,69.733 68.621,69.732 61.58,69.732 
		61.58,65.351 66.486,65.351 66.486,62.647 61.58,62.647 61.58,58.65 	"/>
	<polygon points="80.546,58.65 80.546,55.97 70.803,55.97 70.803,72.412 80.888,72.412 80.888,69.733 80.888,69.732 73.846,69.732 
		73.846,65.351 78.752,65.351 78.752,62.647 73.846,62.647 73.846,58.65 	"/>
	<path d="M93.402,58.036c-1.196-1.377-2.93-2.066-5.201-2.066h-5.134v16.442h5.134c2.271,0,4.005-0.69,5.201-2.077
		c1.198-1.385,1.795-3.44,1.795-6.165C95.197,61.458,94.601,59.415,93.402,58.036z M88.132,69.734H86.11V58.65h2.044
		c2.606,0,3.908,1.847,3.908,5.541C92.063,67.886,90.752,69.733,88.132,69.734z"/>
	<path d="M33.875,50.414h15.116c0.248,0,0.371-0.298,0.196-0.474l-5.041-5.063c6.276-6.695,15.191-10.883,25.09-10.883
		c5.968,0,11.574,1.529,16.466,4.204l0.004-0.005c0.044,0.023,0.088,0.042,0.14,0.042c0.162,0,0.296-0.133,0.296-0.294
		c0-0.101-0.057-0.184-0.132-0.236l0.006-0.007c-6.099-5.274-14.036-8.478-22.73-8.478c-9.602,0-18.291,3.897-24.584,10.189
		l-4.63-4.651c-0.177-0.177-0.476-0.053-0.476,0.194l0.001,15.185C33.597,50.289,33.721,50.414,33.875,50.414z"/>
	<path d="M92.528,77.86H77.412c-0.247,0-0.371,0.297-0.195,0.475l4.932,4.954c-6.258,6.509-15.045,10.568-24.79,10.568
		c-6.158,0-11.935-1.624-16.936-4.46l-0.003,0.005c-0.049-0.036-0.106-0.06-0.171-0.06c-0.161,0-0.292,0.129-0.292,0.29
		c0,0.08,0.033,0.151,0.085,0.202l-0.007,0.008c6.161,5.551,14.306,8.938,23.25,8.938c9.492,0,18.089-3.806,24.366-9.967
		l4.683,4.703c0.176,0.174,0.475,0.052,0.475-0.197V78.139C92.808,77.983,92.683,77.86,92.528,77.86z"/>
</g>
</svg>
