<?xml version="1.0" encoding="utf-8"?>
<!-- Generator: Adobe Illustrator 16.0.0, SVG Export Plug-In . SVG Version: 6.00 Build 0)  -->
<!DOCTYPE svg PUBLIC "-//W3C//DTD SVG 1.1//EN" "http://www.w3.org/Graphics/SVG/1.1/DTD/svg11.dtd">
<svg version="1.1" id="Layer_1" xmlns="http://www.w3.org/2000/svg" xmlns:xlink="http://www.w3.org/1999/xlink" x="0px" y="0px"
	 width="128px" height="128px" viewBox="0 0 128 128" enable-background="new 0 0 128 128" xml:space="preserve">
<path d="M89.914,41.249l-2.828-2.828L67.512,57.994c-1.041-0.579-2.237-0.912-3.511-0.912c-0.716,0-1.407,0.108-2.062,0.303
	c-2.342,0.696-4.19,2.544-4.887,4.887c-0.118,0.396-0.202,0.806-0.251,1.228c-0.031,0.274-0.052,0.551-0.052,0.834
	c0,3.998,3.253,7.251,7.251,7.251c0.282,0,0.56-0.021,0.834-0.052c0.421-0.049,0.831-0.133,1.228-0.251
	c2.343-0.696,4.19-2.545,4.887-4.888c0.194-0.654,0.303-1.345,0.303-2.061c0-1.274-0.332-2.47-0.911-3.512L89.914,41.249z
	 M67.252,64.334c0,1.792-1.458,3.251-3.251,3.251c-1.792,0-3.251-1.459-3.251-3.251c0-1.793,1.458-3.251,3.251-3.251
	c0.132,0,0.257,0.023,0.384,0.039c1.483,0.178,2.651,1.346,2.828,2.829C67.229,64.077,67.252,64.202,67.252,64.334z"/>
<path d="M91.846,45.499l-1.879,1.879c3.277,4.998,5.04,10.84,5.04,16.956c0,7.61-2.725,14.804-7.711,20.466l-4.909-4.908
	l-2.828,2.828l7.783,7.781l1.413-1.414c6.611-6.613,10.252-15.404,10.252-24.753c0-7.19-2.16-14.044-6.16-19.836L91.846,45.499z"/>
<path d="M83.837,35.488c-0.019-0.013-0.036-0.027-0.055-0.04c-5.837-4.004-12.677-6.121-19.781-6.121
	c-9.351,0-18.142,3.641-24.753,10.253S28.995,54.983,28.995,64.334c0,9.35,3.641,18.141,10.252,24.753l1.414,1.414l7.782-7.781
	l-2.828-2.828L40.707,84.8c-4.987-5.661-7.712-12.854-7.712-20.466c0-8.283,3.225-16.069,9.081-21.926
	c5.857-5.856,13.643-9.081,21.925-9.081c6.063,0,11.901,1.756,16.941,5.055l1.893-1.892L83.837,35.488z"/>
</svg>
