<?xml version="1.0" encoding="utf-8"?>
<!-- Generator: Adobe Illustrator 16.0.0, SVG Export Plug-In . SVG Version: 6.00 Build 0)  -->
<!DOCTYPE svg PUBLIC "-//W3C//DTD SVG 1.1//EN" "http://www.w3.org/Graphics/SVG/1.1/DTD/svg11.dtd">
<svg version="1.1" id="Layer_1" xmlns="http://www.w3.org/2000/svg" xmlns:xlink="http://www.w3.org/1999/xlink" x="0px" y="0px"
	 width="128px" height="128px" viewBox="0 0 128 128" enable-background="new 0 0 128 128" xml:space="preserve">
<path d="M92.255,32.369H44.747c-1.654,0-3,1.346-3,3v6.752h-6.002c-1.654,0-3,1.346-3,3v47.508c0,1.654,1.346,3,3,3h47.509
	c1.654,0,3-1.346,3-3v-6.751h6.001c1.654,0,3-1.346,3-3V35.369C95.255,33.714,93.909,32.369,92.255,32.369z M82.254,91.629H36.745
	V46.121h5.002v36.757c0,1.654,1.346,3,3,3h37.507V91.629z M45.747,59.472h9.655v9.684h-9.655V59.472z M82.254,69.155h-9.646v-9.684
	h9.646V69.155z M68.607,69.155h-9.206v-9.684h9.206V69.155z M45.747,73.155h9.655v8.723h-9.655V73.155z M59.401,73.155h9.206v8.723
	h-9.206V73.155z M72.607,73.155h9.646v8.723h-9.646V73.155z M82.254,55.472h-9.646v-9.351h9.646V55.472z M68.607,55.472h-9.206
	v-9.351h9.206V55.472z M55.401,55.472h-9.655v-9.351h9.655V55.472z M91.255,81.878h-5.001V45.121c0-1.654-1.346-3-3-3H45.747v-5.752
	h45.508V81.878z"/>
</svg>
