<?xml version="1.0" encoding="utf-8"?>
<!-- Generator: Adobe Illustrator 16.0.0, SVG Export Plug-In . SVG Version: 6.00 Build 0)  -->
<!DOCTYPE svg PUBLIC "-//W3C//DTD SVG 1.1//EN" "http://www.w3.org/Graphics/SVG/1.1/DTD/svg11.dtd">
<svg version="1.1" id="Layer_1" xmlns="http://www.w3.org/2000/svg" xmlns:xlink="http://www.w3.org/1999/xlink" x="0px" y="0px"
	 width="232px" height="232px" viewBox="0 0 232 232" enable-background="new 0 0 232 232" xml:space="preserve">
<path d="M154.163,85.427c-0.67,0-1.33,0.23-1.909,0.665l-33.199,24.9V88.491c0-1.744-1.24-3.06-2.885-3.06
	c-0.678,0-1.346,0.237-1.931,0.686l-34.322,26.339V81.993h-5v68h5v-30.466l34.322,26.34c0.585,0.449,1.252,0.686,1.931,0.686
	c0.921,0,1.788-0.449,2.318-1.201c0.369-0.521,0.564-1.166,0.564-1.858v-22.5l33.199,24.899c0.58,0.436,1.24,0.666,1.909,0.666
	c0.001,0,0,0,0.001,0c0.931,0,1.775-0.436,2.316-1.193c0.375-0.525,0.574-1.174,0.574-1.872v-55
	C157.055,86.745,155.811,85.427,154.163,85.427z M114.054,139.423l-30.531-23.431l30.531-23.431V139.423z M152.055,139.492
	l-31.334-23.5l31.334-23.5V139.492z"/>
</svg>
