<?xml version="1.0" encoding="utf-8"?>
<!-- Generator: Adobe Illustrator 16.0.0, SVG Export Plug-In . SVG Version: 6.00 Build 0)  -->
<!DOCTYPE svg PUBLIC "-//W3C//DTD SVG 1.1//EN" "http://www.w3.org/Graphics/SVG/1.1/DTD/svg11.dtd">
<svg version="1.1" id="Layer_1" xmlns="http://www.w3.org/2000/svg" xmlns:xlink="http://www.w3.org/1999/xlink" x="0px" y="0px"
	 width="148px" height="148px" viewBox="0 0 148 148" enable-background="new 0 0 148 148" xml:space="preserve">
<g>
	<g>
		<path style="fill:#3695dd;" d="M66,30.032C66,28.357,64.643,27,62.968,27H40.032C38.357,27,37,28.357,37,30.032v88.937c0,1.674,1.357,3.031,3.032,3.031
			h22.937c1.674,0,3.032-1.357,3.032-3.031V30.032z"/>
		<path style="fill:#3695dd;" d="M111,30.032c0-1.674-1.357-3.032-3.031-3.032H85.031C83.357,27,82,28.357,82,30.032v88.937
			c0,1.674,1.357,3.031,3.031,3.031h22.938c1.674,0,3.031-1.357,3.031-3.031V30.032z"/>
	</g>
</g>
</svg>
