<?xml version="1.0" encoding="utf-8"?>
<!-- Generator: Adobe Illustrator 16.0.0, SVG Export Plug-In . SVG Version: 6.00 Build 0)  -->
<!DOCTYPE svg PUBLIC "-//W3C//DTD SVG 1.1//EN" "http://www.w3.org/Graphics/SVG/1.1/DTD/svg11.dtd">
<svg version="1.1" id="Layer_1" xmlns="http://www.w3.org/2000/svg" xmlns:xlink="http://www.w3.org/1999/xlink" x="0px" y="0px"
	 width="128px" height="128px" viewBox="0 0 128 128" enable-background="new 0 0 128 128" xml:space="preserve">
<g>
	<path d="M93,88.584H35.875c-1.654,0-3-1.346-3-3v-43.01c0-1.654,1.346-3,3-3H93c1.654,0,3,1.346,3,3v43.01
		C96,87.238,94.654,88.584,93,88.584z M36.875,84.584H92v-41.01H36.875V84.584z"/>
</g>
<polygon points="64.75,62.802 74.706,50.828 68.421,50.828 59.274,62.554 59.274,50.828 54.23,50.828 54.23,77.33 59.274,77.33 
	59.274,69.394 61.501,66.727 68.95,77.33 75.116,77.33 "/>
</svg>
